<svg version="1.2" xmlns="http://www.w3.org/2000/svg" viewBox="0 0 100 95" width="100" height="95">
	<defs>
		<radialGradient id="g1" cx="0" cy="0" r="1" gradientUnits="userSpaceOnUse" gradientTransform="matrix(32.344,115.169,-115.169,32.344,40.084,-34.103)">
			<stop offset="0" stop-color="#e3f3fc"/>
			<stop offset=".22" stop-color="#aeb7bd"/>
			<stop offset=".606" stop-color="#8ca4af"/>
			<stop offset="1" stop-color="#393b3d"/>
		</radialGradient>
	</defs>
	<style>
		.s0 { fill: url(#g1) } 
		.s1 { opacity: .2;mix-blend-mode: multiply;fill: #576065 } 
		.s2 { opacity: .6;mix-blend-mode: screen;fill: #b3e4fa } 
		.s3 { opacity: .7;fill: #22292c } 
		.s4 { opacity: .7;fill: #0f1619 } 
		.s5 { fill: #22292c } 
	</style>
	<g id="Layer 1">
		<path id="&lt;Compound Path&gt;" class="s0" d="m95.7 38.3c-0.9-6 0.1-12.6-2.8-18.2-2.3-4.7-7.2-7.9-12-9.6-5.7-2-11.6-0.5-17.3-2.2-2.7-0.8-4.9-2.7-7.5-3.9-2.5-1.2-5.2-1.8-8-1.9-4.8-0.1-9.9 1.8-13.8 4.6-2.2 1.6-4.4 3.3-6.8 4.7-2.4 1.4-5 2.3-7.4 3.6-3.9 2.3-7.1 5.8-9.2 9.8-1 1.8-0.8 4-0.7 6q0 0.5-0.1 1.1c-1.9 4.6-5.2 8.4-7.3 13.1-2.5 5.5-1.9 11.7-0.2 17.3 1.7 5.8 6.6 10.2 11.3 13.7 2.6 1.9 5 4 7.6 5.7 2.6 1.7 4.2 4.3 6.2 6.5 4 4.2 9.3 4.6 14.3 2.2 2.6-1.2 5-2.9 7.6-4.3 3.4-1.9 7.1-2 10.9-1.9 6.6 0.2 12.7-0.8 18.7-3.4 5-2.2 10.2-4.9 14.2-8.7 9.4-8.9 4-23.4 2.3-34.2z"/>
		<path id="&lt;Compound Path&gt;" class="s1" d="m95.8 38.6c-0.9-6.1 0.1-12.6-2.7-18.2-2.4-4.7-7.2-8-12-9.7-5.7-2.1-11.7-0.6-17.3-2.3-2.7-0.9-4.9-2.7-7.4-3.9-2.6-1.2-5.2-1.9-8.1-2-4.8-0.2-9.8 1.7-13.8 4.5-2.2 1.6-4.4 3.3-6.8 4.7-2.4 1.3-5.1 2.2-7.5 3.6-3.9 2.2-7 5.7-9.2 9.7-0.9 1.8-0.8 4-0.8 5.9q0.1 0.6 0 1.2c-2 4.6-5.3 8.4-7.4 13-2.5 5.5-1.9 11.7-0.3 17.4 1.6 5.7 6.6 10.2 11.3 13.7 2.5 1.9 4.9 4 7.5 5.8 2.6 1.6 4.2 4.3 6.2 6.5 3.9 4.2 9.2 4.6 14.3 2.3 2.6-1.3 5-3 7.5-4.3 3.5-1.8 7.2-2 11-1.8 6.6 0.2 12.6-0.8 18.7-3.4 5-2.1 10.3-4.8 14.2-8.5 9.5-8.9 4.2-23.4 2.6-34.2zm-24.5-15.8c-0.6 1.4-2 2.3-3.3 3.1-1.8 1.3-3.2 2.6-4.1 4.7-1 2.2-1.6 4.4-2.3 6.6-0.6 1.7-1.1 3.7-2.4 5-0.8 0.8-1.8 1.3-2.6 2.1-1.1 1.1-1 2.2-1 3.7-0.1 1.6-0.9 2.4-2.4 3.1-4.2 1.7-7.9 5-8.9 9.6 2.7-1.9 5.6-4 9-3.5 0.3 0 0.4 0.5 0.1 0.6-3.7 2-6.7 7.2-7 11.3-0.1 1.8 0.7 6.8-2.2 7.1-1.7 0.1-3.4-0.7-5.1-0.9-2.3-0.3-4.7-0.2-6.8 1.1-1 0.7-1.9 2.1-3.1 2.1-1.7 0.1-2.2-2.4-4.1-2-1.3 0.3-2.5 0.9-3.8 0.2-1.3-0.7-2.5-1.7-3.7-2.5-3.1-2.2-6.7-4.1-9.5-6.7-3.6-3.5-5.2-8.7-5.4-13.6 0-1.4 0.1-2.8 0.3-4.2 0.5-3.4 2.2-6.5 4.2-9.2 1-1.4 2.4-2.5 3.7-3.8 1.9-1.8 1.2-3.7 0.8-6-0.1-0.3 0.3-0.6 0.5-0.4 1.3 1.1 1.9 2.6 2.5 4.1 0.1-3 0.1-6.5 2.7-8.4 0.7-0.5 2.2-1.8 3.1-1.6 1.3 0.3 2.2 1.2 3.2 1.9-0.7-1.5-1.6-2.9-2.3-4.4-0.1-0.2 0-0.4 0.2-0.5 1.4-0.8 1.6-2.8 3.1-3.5 0.5-0.3 1.1-0.4 1.8-0.5q-0.6-0.4-1.2-0.8c-0.2-0.1-0.1-0.5 0.1-0.6 0.9-0.6 1.9-1.1 2.7-1.8-0.6 0.1-1.2 0.2-1.8 0.3-0.5 0.1-0.6-0.4-0.3-0.6 5.2-3.3 9.7-7.7 15.8-9.2 2.1-0.5 4.8-0.7 6.4 1 1.1 1.2 0.8 4.3 0.6 5.8-0.1 0.3-0.6 0.4-0.7 0.1-0.4-1-0.6-2.1-0.9-3.1 0 1.1-0.1 2.2-0.4 3.2-0.1 0.2-0.3 0.3-0.5 0.3q-2-0.7-3.9-1.5 0.2 0.4 0.5 0.7c0.1 0.3-0.1 0.8-0.4 0.6-1.4-0.7-4.9-1.4-5.8 0.4-0.9 1.5 1.7 3.2 2.4 4.4 0.1 0.1 0.1 0.3-0.1 0.4-1.9 1.4-5 2.2-5.9 4.7 2.5 0.3 5.2-0.7 7.5-1.5q1.6-0.6 3.2-1.2c0.5-0.2 1.2-0.6 1.8-0.4 1.5 0.6 0.8 3 0.4 4.1-0.6 1.5-1.3 2.9-1.7 4.4q0 0.2 0.1 0.4c2.4-1.4 3.3-4.3 5.2-6.3 0.2-0.1 0.5 0 0.6 0.2 0.2 0.5 0.3 1.1 0.5 1.7 0.1 0.5 0.2 0.9 0.3 1.3 0.3 0.7 0.9 0.4 1-0.2 0.2-1.3 0-2.8 0.5-4 0.2-0.7 0.6-1.4 1.4-1.2 1.3 0.3 2.2 1.2 3.5 1.1-0.4-0.6-0.9-1.1-1.5-1.6-0.4-0.3 0-0.8 0.4-0.6 2.5 1.5 5.3 2.7 8.3 3.1 2.2 0.2 4.5 0.3 6.5 1.3 0.2 0.1 0.3 0.3 0.2 0.5z"/>
		<path id="&lt;Path&gt;" class="s2" d="m12.7 35.4c-1.4 1.5-2.4 3.3-3.8 4.8q-1.8 1.8-3.1 4c-2 3.3-2.6 7.1-2.3 11 0.4 4.1 2.2 7.8 4.9 10.9 1.6 1.6 3.4 2.9 5.2 4.2 1.4 1.1 2.7 2.4 4.3 3.1 0.1 0 0.3-0.2 0.2-0.3-5.9-4.6-11.8-9.2-13.5-16.9-0.9-4.1-0.1-8.2 1.9-11.8 0.8-1.6 2.1-3 3.2-4.4 1.2-1.4 1.9-3.1 3.1-4.5 0.1-0.1 0-0.2-0.1-0.1z"/>
		<path id="&lt;Compound Path&gt;" class="s3" d="m26.3 14.6c-0.3 0.2-1.5 0.2-2.3 0.5-0.3-0.4-1.5 0.2-1.9 0.5-2.1 1.2-4.3 2.5-6.1 4.2-0.9 0.8-1.6 1.6-2.2 2.5-1 1.3-2 2.8-1.9 4.1q0 0 0 0c0 0.3 0.1 0.6 0.2 0.9 0.1 0.4 0.1 0.8 0.2 1.2 0.1 0.2 0.3-0.1 0.3-0.2 0-0.4 0.1-0.9 0.1-1.2q0-0.2 0-0.4c0.4-0.1 0.9-0.3 1.4-0.6q0 0.2 0.1 0.4c0.2 0.4 0.3 0.8 0.4 1.2 0.1 0.4 0.4 0.9 0.3 1.3 0 0.3 0.3 0.1 0.3 0 0.2-0.6 0-1.4 0-2-0.1-0.4-0.1-0.7-0.2-1.1q-0.1-0.1-0.1-0.3c1.4-0.9 2.6-2 3.7-3.1q0.1 0 0.2 0.1 0.4 0.4 0.7 0.9c0.1 0.1 0.3-0.1 0.3-0.2q-0.3-0.5-0.6-1-0.1-0.1-0.2-0.2 0.1-0.1 0.2-0.2c0.2 0.2 0.5 0.5 0.7 0.7 0.4 0.7 0.9 1.3 1.4 1.9 0.1 0.1 0.3-0.2 0.3-0.3-0.4-0.7-0.7-1.5-1.1-2.2-0.1-0.2-0.3-0.6-0.6-0.9q0.4-0.4 0.8-0.8 0.4-0.4 0.7-0.8 1-1 1.8-2.2 0.1 0 0.1-0.1c0.2 0 0.4-0.1 0.6-0.1 0.5 0 1 0.1 1.4 0.1 0.1 0 0.3-0.3 0.2-0.3-0.5-0.1-1.2-0.5-1.8-0.4q0-0.1 0-0.1 0.1-0.1 0.2-0.1c0.3-0.1 0.7 0 1 0 0.1 0 0.2-0.2 0.1-0.2-0.3 0-0.6-0.1-0.9-0.1 0.7-0.4 1.6-0.6 2.3-1.2 0.1-0.1 0.1-0.3-0.1-0.2zm-3.1 1.5c0 0-0.1 0.1-0.1 0.2-0.2-0.3-6 4.4-6.4 4.8-1.2 1.2-2.7 2.6-3.7 4.1q-0.1-0.3-0.1-0.7 0 0 0 0c1.7-2.8 3.8-5 6.6-6.7q1.5-0.9 2.9-1.8c0.8-0.4 1-0.3 0.8 0.1z"/>
		<path id="&lt;Compound Path&gt;" class="s3" d="m41.2 83.6c-1-2.4-4.8-4.3-7.2-3.2q0 0 0 0c-1.3 0.1-2.5 0.5-2.4 1.7 0.3 2.6 4.7 3.9 6.8 4.1 2 0.2 3.7-0.4 2.8-2.6z"/>
		<path id="&lt;Compound Path&gt;" class="s3" d="m80.5 32.2c-3.3 2.1-6.8 6.1-6.5 10.4q-0.2-0.3-0.5-0.5c-0.1-1.1-0.3-2.2-0.1-3.4 0-0.1-0.2 0-0.2 0.1-0.2 0.9-0.2 2-0.2 3-0.8-0.4-1.7-0.4-2.8-0.2q-1.2 0.2-2.2 0.6c-0.3-0.6-0.5-1.3-0.7-2-0.2-1.1-0.3-3.2 0.3-4.2 0.1-0.2-0.1-0.2-0.1-0.1-0.9 1-0.9 2.9-0.8 4.1 0 0.6 0.1 1.7 0.4 2.6-1.1 0.6-2.1 1.3-3.1 2.2q-2 1.7-3.7 3.6-0.1-0.1-0.2-0.2-0.5-0.3-0.9-0.6-0.4-0.4-0.9-0.6c-0.3-0.2-0.6-0.3-0.9-0.4-0.1-0.1-0.3 0.1-0.2 0.2 0.2 0.2 0.5 0.3 0.7 0.4q0.5 0.4 1 0.8 0.4 0.4 0.9 0.8 0.1 0.1 0.1 0.1-0.1 0.2-0.3 0.5-0.1-0.1-0.3-0.2c-0.2-0.2-0.5-0.4-0.8-0.5-0.1-0.1-0.2 0.1-0.1 0.2 0.3 0.2 0.5 0.4 0.7 0.6q0.1 0.1 0.2 0.2-0.6 0.9-1.2 1.8c-1-0.2-2.2 0.1-3 0.3-2.1 0.5-3.7 1.3-5.4 2.6 0 0 0 0.2 0.1 0.1 1.8-1.1 3.5-1.8 5.7-2.1q1.1-0.2 2.1-0.1 0 0.1 0 0.2c-1 1.7-1.7 3.9-1.7 6-1 0.4-2.1 1.2-2.7 1.9q-0.9 1.1-1.5 2.3c-0.4 0.7-0.4 1.8-0.8 2.3 0 0.1 0 0.2 0.1 0.2 0.7-0.5 1-2.1 1.4-2.7 0.9-1.5 2.1-2.4 3.6-3.2q0 0.4 0.1 0.8 0.2 0.9 0.6 1.4c-0.3 0.2-0.5 0.5-0.7 0.8-0.3 0.4-0.5 1-0.8 1.5-0.1 0.2 0.1 0.2 0.2 0.1 0.2-0.3 0.4-0.7 0.6-1.1q0.2-0.3 0.5-0.6c0.1-0.1 0.3-0.2 0.5-0.4q0.5 0.5 1.1 0.8c-0.2 0.2-0.4 0.5-0.4 0.7q-0.1 0.2-0.2 0.4c0 0-0.1 0.1 0 0.2q0 0 0 0 0 0 0.1 0c0.1-0.1 0.2-0.3 0.3-0.4 0.1-0.3 0.3-0.5 0.5-0.8 1.2 0.4 2.5 0.4 3.7 0.2 2.3-0.4 4.8-1.1 7-2.2 0.1 0.3 0.3 0.6 0.5 0.8 0.3 0.4 0.6 0.8 1 1.1 0.1 0.1 0.3-0.1 0.2-0.2-0.3-0.4-0.4-0.8-0.6-1.2-0.1-0.3-0.2-0.5-0.3-0.7q-0.1-0.1-0.1-0.2c2.8-1.5 5.2-3.7 5.9-6.9 0.4-1.7 0.5-3.5 0.3-5.2q0.1-0.2 0.3-0.3 0.3-0.1 0.6-0.3c0.1 0 0.3-0.3 0.1-0.2-0.4 0.1-0.8 0.2-1.1 0.4q-0.1-0.8-0.3-1.6c0.2-0.4 0.7-0.7 1-0.9q0.4-0.3 0.8-0.5 0.2-0.2 0.4-0.3c-0.1 0.1 0.9-0.5 0.4-0.1 0 0 0 0.1 0.1 0 0.2-0.1 0.1 0 0.3-0.2 0 0 0.1-0.1 0-0.1-0.7-0.3-1.8 0.5-2.4 0.9-0.2 0.1-0.5 0.3-0.8 0.5q-0.2-0.7-0.5-1.4-0.1-0.2-0.1-0.3c0.2-2.2 0.3-4.2 1.3-6.2 1-2.2 2.8-3.6 4.5-5.2 0.1-0.1 0.1-0.3-0.1-0.2zm-5.7 20.7c-0.7 5.7-7.1 7.6-11.8 8.8-2.5 0.7-5.3 0.4-6.1-2.3q0 0 0.1 0.1c1.3 1 4.2 0.6 5.4 0.5 2.3-0.3 4.2-2 5.9-3.4 1.6-1.4 3.9-3.2 4.7-5.2 0.6-1.3 0.6-2.6 0.7-4 0.1-1.1-0.2-2.3-0.2-3.4q0.3 0.5 0.5 0.9c1.1 2.5 1.2 5.4 0.8 8z"/>
		<path id="&lt;Compound Path&gt;" class="s3" d="m87.9 19.1c-0.1-1.1-1.4-2.2-1.9-2.8-1.6-1.9-3.8-3.5-6.2-4.2-0.9-0.3-2.7-0.6-3.8 0-0.8 0.1-1.7 0.7-2.5 0.9-1.2 0.4-2.6 0.4-3.9 0.5-0.1 0.1-0.2 0.2-0.1 0.2 1.6 0.9 3.9 0.1 5.7-0.7-0.2 0.3-0.1 0.7 0.1 1.2-0.8 0.3-1.6 1-2.5 1.2 0 0.1-0.1 0.2 0 0.2 0.9-0.1 1.8-0.6 2.7-1 0.5 0.7 1.2 1.3 1.6 1.7q0.5 0.6 1.2 1.1 0 0.2-0.1 0.3-0.1 0-0.1 0.1c0 0-0.1 0-0.1 0q0 0 0 0.1c0 0.1 0.3-0.1 0.5-0.3q0.1 0.1 0.3 0.1-0.2 0.3-0.5 0.5c-0.1 0-0.1 0.3 0 0.2q0.4-0.2 0.6-0.5 0.3 0.2 0.6 0.4-0.5 0.4-1 0.9c-0.3 0.3-0.6 0.7-0.8 1-0.3 0.3-0.5 0.8-0.8 1.1-0.1 0-0.1 0.1 0 0.1 0.1 0 0.1-0.1 0.2-0.2q0.6-0.7 1.2-1.3c0.4-0.6 1-1 1.6-1.4q0.6 0.4 1.3 0.7-0.1 0.1-0.1 0.2c-0.5 0.7-0.8 1.5-1.2 2.3 0 0.1 0.1 0.1 0.2 0q0.5-1 1.1-1.9 0.1-0.3 0.3-0.5 0.8 0.4 1.6 0.7c-0.2 0.5-0.3 1.2-0.5 1.8-0.1 0.1 0.1 0 0.2-0.1q0.2-0.5 0.4-1.1 0.1-0.3 0.2-0.5 0.5 0.1 0.9 0.3c0.4 0.1 1 0.2 1.5 0.2-0.6 1-0.7 2.4-0.7 3.5 0 0.1 0.3-0.1 0.3-0.2q0.1-0.9 0.4-1.8c0.2-0.5 0.4-1 0.4-1.4q0.5-0.1 0.8-0.2c-0.2 1.5 0.1 3.1 0.4 4.4 0 0.2 0.3 0 0.3-0.2-0.2-1.9 0.1-3.6 0.2-5.5q0-0.1 0-0.1zm-1.5 0.7q0-0.2 0.1-0.2 0-0.2-0.1-0.2 0 0-0.1 0c-0.1-1.1-4.2-4-4.6-4.2-0.7-0.4-4.6-2.3-5.4-1.6-0.1-0.5 0.1-0.9 1.1-0.9 1.5 0 2.8 0.4 4.1 1.1 2.1 1.1 3.9 3 5.2 4.9 0.5 0.7 0.3 1-0.3 1.1z"/>
		<path id="&lt;Path&gt;" class="s3" d="m60.9 16.8c-2.2-0.4-4.4-0.9-6.6-1.2 0.1-0.5-0.3-0.9-0.7-1.2q0.1-0.1 0.3-0.2c1.5-0.6 3.1-1.1 4.6-1.9 0.1 0 0.1-0.3 0-0.2-1.3 0.6-2.7 0.9-4.1 1.4q-0.7 0.3-1.4 0.5c-0.6-0.2-1.2-0.4-1.5-0.6 0.2-0.2 0.4-0.3 0.5-0.5 0.4-0.4 1-0.8 1.3-1.4 0.1-0.1 0-0.2-0.1 0-0.6 0.7-1.4 1.1-2.1 1.8q-0.2-0.1-0.5-0.1 0.1-0.1 0.1-0.1 0.2-0.4 0.5-0.8c0.1-0.2-0.2-0.2-0.2-0.1-0.2 0.3-0.4 0.6-0.6 1q-0.3-0.1-0.6-0.1-0.8-0.2-1.6-0.2c-0.1-0.6-0.3-1.2-0.4-1.7-0.3-1.1-0.4-2.3-0.9-3.4 0-0.1-0.2 0.1-0.1 0.2 0.3 1 0.3 2.1 0.4 3.1 0.1 0.6 0.2 1.2 0.3 1.8q-0.6 0-1.2 0.1c-0.2-0.5-0.5-0.8-0.8-1.2-0.1-0.2-0.3 0.1-0.2 0.2q0.2 0.3 0.4 0.6 0.1 0.2 0.2 0.4c-0.8 0.1-1.6 0.3-2.2 0.5q-0.2-0.1-0.5-0.2c-0.6-0.3-1.6-0.5-2-1.1-0.1-0.1-0.3 0.1-0.3 0.2 0.4 0.6 1.2 1 1.8 1.3q0.1 0.1 0.3 0.2-0.3 0.2-0.5 0.4c-0.4 0-0.7 0-1.1 0-0.8 0-1.5 0.1-2.3 0-0.1 0-0.2 0.2-0.1 0.2q0.9 0.1 1.8 0.1c0.5 0 1 0.1 1.5 0.2-0.2 0.5 0.5 1 1.3 1.4q-0.2 0.1-0.3 0.2c-0.3 0.2-0.6 0.3-0.8 0.6-0.1 0.2 0 0.2 0.1 0.2 0.4-0.4 0.9-0.6 1.4-0.8q0.2 0.1 0.3 0.1c-0.5 0.4-1.1 0.8-1.7 1.1-1.2 0.7-2.5 1.8-3.8 2.3-0.1 0-0.2 0.3 0 0.2 1-0.3 2-1 2.9-1.5 1.1-0.6 2.2-1.2 3.3-1.8q0.3 0 0.5 0.1 1.2 0.3 2.4 0.3 0 0.4 0 0.9c-0.1 0.8-0.2 1.6-0.1 2.4 0 0.2 0.3 0 0.3-0.1 0-1.1 0.3-2.1 0.4-3.2q1.2 0 2.3-0.2c0.2 0.2 0.4 0.4 0.5 0.5 0.1 0.1 0.3-0.1 0.2-0.2q-0.1-0.2-0.2-0.3 0.1-0.1 0.1-0.1 0.2 0 0.3 0 0.2 0.1 0.4 0.2 0.5 0.4 1.1 0.7c0.1 0.1 0.4-0.2 0.2-0.3q-0.4-0.4-0.9-0.8c0.5 0 0.9-0.2 1.3-0.4 0.8 0.1 1.6 0.1 2.4 0.2 1.5 0.1 3.1 0.4 4.6 0.5 0.1 0 0.2-0.2 0.1-0.2z"/>
		<path id="&lt;Compound Path&gt;" class="s4" d="m87.7 69.5q-2 1.2-3.8 2.5c-1.3 0.9-2.7 1.9-3.8 3.1-1 0.6-1.9 1.6-2.2 2.6-0.6 1.6 1.9 1 2.7 0.8 2.6-0.8 5.1-2.4 7.3-4.1 1.6-1.3 4-3.4 4.7-5.3 1.1-3.2-4.1-0.1-4.9 0.4z"/>
		<path id="&lt;Compound Path&gt;" class="s5" d="m23.5 46.9c-1.6 0.7-3.7 1.6-5.5 1.9-1.3 0.1-2.5 0.2-3.8 0.5-0.3-1.4-0.7-2.6-1.5-3.7 0.5-0.2 0.9-0.4 1.4-0.5 0.6-0.2 1.2-0.5 1.7-0.7 0.1-0.1 0.3-0.4 0.1-0.3-0.7 0.2-1.3 0.5-1.9 0.7-0.5 0.1-1.1 0.2-1.5 0.5q0 0-0.1-0.1 0.2-0.1 0.5-0.2 0.3-0.1 0.6-0.4c0.1-0.1 0.1-0.3-0.1-0.2-0.3 0.2-0.6 0.4-0.9 0.4q-0.2 0.1-0.3 0.1-0.2-0.2-0.4-0.4 0.2 0 0.4-0.1c0.5-0.2 1-0.7 1.5-1 0.8-0.6 1.6-1.4 1.8-2.3 0-0.1-0.1-0.1-0.2 0-0.5 1-2.4 2.2-3.5 2.3-0.7 0.1-1.2 0.3-1.6 0.8q-0.4 0.1-0.8 0.7c-0.6 0.9-0.9 1.9-1.1 3-1.4 3.9-1.2 9.2 0.2 12.7 0.3 0.9 1.1 2.8 2.4 2.6 0.5 0.3 1.3 0.4 1.6 0.4q1.1 0.3 2.2 0.7c1.1 0.3 1.6 1.1 2.5 1.7 0 0.1 0.2-0.1 0.1-0.2-0.3-0.6-0.6-1.2-1.1-1.7-0.4-0.4-1.4-0.6-1.9-0.7-0.7-0.3-1.5-0.4-2.3-0.5q-0.1 0-0.3-0.1c0.8-0.5 1.3-1.4 1.6-2.3q0.5 0 0.9 0.1c0.7 0.1 1.2 0.4 1.8 0.6 0.2 0 0.3-0.2 0.2-0.3-0.6-0.3-1.1-0.6-1.8-0.7q-0.4-0.2-0.9-0.3 0.2-0.6 0.3-1.1 0.1-0.2 0.1-0.4 0.6 0 1.2 0c1.1 0 2.3 0.2 3.4 0.1 0.2 0 0.4-0.3 0.2-0.3-0.6 0-1.2-0.2-1.8-0.3-0.5-0.1-1.1-0.1-1.6-0.1-0.3-0.1-0.8-0.2-1.2-0.2 0.3-1.2 0.5-2.6 0.5-3.9 0.1-0.1 0.2-0.2 0.1-0.3q-0.1 0-0.1 0 0-1 0-2.1 0.4-0.1 0.9-0.1c0.6-0.1 1.2 0 1.8-0.1 0.1 0 0.2-0.3 0.1-0.3-0.6 0.1-1.2 0-1.8-0.1q-0.5 0-1.1 0.2 0-0.4-0.1-0.8c0.2 0 0.5-0.1 0.8-0.1 1-0.1 2-0.1 3-0.3 1.8-0.4 3.8-1.7 5.3-2.6 0.1-0.1 0.2-0.3 0-0.2zm-11.3-0.7c-0.6 2.6-1.6 4.9-1.7 7.6-0.1 2.4 0.7 5.1 1.7 7.3-0.6 0.9-1.4 1.3-2.3 0-0.6-0.9-0.8-2.1-1-3.1q0-0.1 0.1-0.1 0 0 0 0c0.3-0.1 0.6-0.2 0.7-0.3 0.2 0 0.2-0.1 0.3-0.2q0-0.1-0.1-0.2 0 0 0 0c-0.4 0-0.8 0.2-1.1 0q0 0-0.1 0-0.1-0.6-0.2-1.2 0.4-0.2 0.8-0.4c0.1-0.1 0.2-0.4-0.1-0.3-0.2 0.1-0.4 0.3-0.7 0.3-0.2-1.3-0.3-2.6-0.2-4 0 0.1 0.1 0 0.1-0.1 0.2-1.7 0.5-3.3 0.9-4.9 0.5-2.4 2-1.6 3-0.5q0 0-0.1 0.1z"/>
		<path id="&lt;Path&gt;" class="s5" d="m9.4 53.4q-0.2 0.1-0.4 0.1c-0.2 0.1-0.3 0-0.4-0.1-0.1 0-0.2 0.1-0.3 0.2 0 0.5 0.8 0.2 1 0.2 0.1-0.1 0.2-0.4 0.1-0.4z"/>
		<path id="&lt;Path&gt;" class="s3" d="m49 80.7q0 0 0 0c-0.3-1.2-2.4-1.6-3-0.4-0.2 0.5 0 1 0.4 1.2 0.3 0.3 0.7 0.6 1.1 0.7 0.7 0.2 1.4-0.4 1.5-1q0-0.2 0-0.4c0 0 0-0.1 0-0.1z"/>
		<path id="&lt;Path&gt;" class="s3" d="m28.1 80.3c-0.8-0.5-1.5-1.3-2.5-0.8-0.7 0.3-0.8 1-0.5 1.5q0 0.2 0.1 0.4c0.7 0.8 2.7 1.7 3.6 0.7 0.5-0.7-0.1-1.3-0.7-1.8z"/>
		<path id="&lt;Path&gt;" class="s3" d="m86.2 53c-0.4 0.1-0.8 0.5-1 0.8-0.2 0.3-0.4 0.7-0.4 1.1 0 0.1 0.1 0.2 0.2 0.2 0.4 0.1 0.7-0.1 1-0.3 0.2-0.2 0.6-0.7 0.4-1.1q0.1-0.2 0.1-0.4c0-0.2-0.1-0.4-0.3-0.3z"/>
		<path id="&lt;Path&gt;" class="s4" d="m92.2 39c-0.6-0.7-1.7-0.4-2.2 0.3-0.5 0.6-0.7 1.2-0.9 1.9-0.3 1-0.5 2.1-0.5 2.7 0 0.4 0.2 1 0.4 1.5q0.1 0.1 0.1 0.2c0.4 0.9 1.5 1.4 2.3 0.7 0.7-0.3 1.2-0.8 1.6-1.5 1-1.7 0.5-4.4-0.8-5.8z"/>
		<path id="&lt;Path&gt;" class="s3" d="m89.1 33.8c-0.1-0.1-0.2 0-0.4 0-0.2 0.1-0.4 0.4-0.4 0.7q0 0.1 0 0.2c0 0.2 0.2 0.2 0.3 0.2 0.1-0.1 0.2-0.2 0.3-0.4q0 0 0 0 0.1-0.1 0.1-0.1c0.1-0.1 0.3-0.4 0.1-0.6z"/>
		<path id="&lt;Path&gt;" class="s3" d="m67.3 16.8c-0.5-0.4-1.3-0.4-1.6 0.2-0.1 0-0.2 0.1-0.2 0.2q0 0 0 0c0 0.2 0 0.4 0.3 0.6q0.1 0 0.3 0c0.2 0.2 0.5 0.3 0.9 0.3 0.6-0.1 0.8-0.9 0.3-1.3z"/>
		<path id="&lt;Path&gt;" class="s2" d="m46.1 5.2c-6.4-0.4-12.2 3.6-17.1 7.4-0.1 0.1-0.1 0.3 0.1 0.2 2.6-1.4 5.1-3.2 7.7-4.6 3-1.6 5.9-2.5 9.2-2.8 0.1 0 0.2-0.2 0.1-0.2z"/>
	</g>
</svg>