<svg version="1.2" xmlns="http://www.w3.org/2000/svg" viewBox="0 0 1680 200" width="1680" height="200">
	<title>2106</title>
	<defs>
		<linearGradient id="g1" x2="1" gradientUnits="userSpaceOnUse" gradientTransform="matrix(113.687,0,0,97.416,1566.951,38.915)">
			<stop offset="0" stop-color="#000000"/>
			<stop offset="1" stop-color="#ffffff"/>
		</linearGradient>
		<linearGradient id="g2" x2="1" gradientUnits="userSpaceOnUse" gradientTransform="matrix(100.696,0,0,82.82,1441.354,99.951)">
			<stop offset="0" stop-color="#ffffff"/>
			<stop offset="1" stop-color="#000000"/>
		</linearGradient>
		<linearGradient id="g3" x2="1" gradientUnits="userSpaceOnUse" gradientTransform="matrix(113.687,0,0,97.416,1299.672,45.058)">
			<stop offset="0" stop-color="#000000"/>
			<stop offset="1" stop-color="#ffffff"/>
		</linearGradient>
		<linearGradient id="g4" x2="1" gradientUnits="userSpaceOnUse" gradientTransform="matrix(100.696,0,0,82.82,1226.429,82.394)">
			<stop offset="0" stop-color="#ffffff"/>
			<stop offset="1" stop-color="#000000"/>
		</linearGradient>
		<radialGradient id="g5" cx="0" cy="0" r="1" fx=".002" fy=".077" gradientUnits="userSpaceOnUse" gradientTransform="matrix(-45.893,44.528,38.615,39.799,1309.511,99.968)">
			<stop offset="0" stop-color="#ffff00"/>
			<stop offset="1" stop-color="#000000"/>
		</radialGradient>
		<linearGradient id="g6" x2="1" gradientUnits="userSpaceOnUse" gradientTransform="matrix(-58.896,57.144,29.182,30.077,1176.861,10.241)">
			<stop offset="0" stop-color="#ffffff"/>
			<stop offset="1" stop-color="#000000"/>
		</linearGradient>
		<linearGradient id="g7" x2="1" gradientUnits="userSpaceOnUse" gradientTransform="matrix(-78.974,76.625,31.821,32.797,1023.718,68.957)">
			<stop offset="0" stop-color="#000000"/>
			<stop offset="1" stop-color="#ffffff"/>
		</linearGradient>
		<linearGradient id="g8" x2="1" gradientUnits="userSpaceOnUse" gradientTransform="matrix(-30.024,-30.945,-16.309,15.824,1049.565,62.937)">
			<stop offset="0" stop-color="#000000"/>
			<stop offset="1" stop-color="#ffbc00"/>
		</linearGradient>
		<linearGradient id="g9" x2="1" gradientUnits="userSpaceOnUse" gradientTransform="matrix(-41.26,40.033,31.88,32.857,1133.122,-11.64)">
			<stop offset="0" stop-color="#ffbc00"/>
			<stop offset="1" stop-color="#000000"/>
		</linearGradient>
		<linearGradient id="g10" x2="1" gradientUnits="userSpaceOnUse" gradientTransform="matrix(-27.044,-27.873,-12.675,12.298,1167.921,124.218)">
			<stop offset="0" stop-color="#ffbc00"/>
			<stop offset="1" stop-color="#000000"/>
		</linearGradient>
		<linearGradient id="g11" x2="1" gradientUnits="userSpaceOnUse" gradientTransform="matrix(-31.222,30.293,48.952,50.453,1042.774,121.023)">
			<stop offset="0" stop-color="#000000"/>
			<stop offset="1" stop-color="#ffbc00"/>
		</linearGradient>
		<linearGradient id="g12" x2="1" gradientUnits="userSpaceOnUse" gradientTransform="matrix(-103.762,103.762,-96.553,-96.553,1185.68,83.541)">
			<stop offset=".031" stop-color="#ff7200"/>
			<stop offset="1" stop-color="#ff0000"/>
		</linearGradient>
		<linearGradient id="g13" x2="1" gradientUnits="userSpaceOnUse" gradientTransform="matrix(-98.657,98.657,-91.279,-91.279,1176.782,81.862)">
			<stop offset="0" stop-color="#8d0000"/>
			<stop offset=".872" stop-color="#c60000"/>
		</linearGradient>
		<linearGradient id="g14" x2="1" gradientUnits="userSpaceOnUse" gradientTransform="matrix(-18.418,17.87,10.51,10.832,1107.78,107.001)">
			<stop offset="0" stop-color="#ffffff"/>
			<stop offset="1" stop-color="#fce170"/>
		</linearGradient>
		<linearGradient id="g15" x2="1" gradientUnits="userSpaceOnUse" gradientTransform="matrix(-7.487,7.265,8.138,8.388,1040.756,85.803)">
			<stop offset="0" stop-color="#ffffff"/>
			<stop offset="1" stop-color="#fce170"/>
		</linearGradient>
		<linearGradient id="g16" x2="1" gradientUnits="userSpaceOnUse" gradientTransform="matrix(-14.441,14.011,16.244,16.742,1093.436,34.586)">
			<stop offset="0" stop-color="#ffffff"/>
			<stop offset="1" stop-color="#fce170"/>
		</linearGradient>
		<linearGradient id="g17" x2="1" gradientUnits="userSpaceOnUse" gradientTransform="matrix(27.78,0,0,21.543,1066.935,78.003)">
			<stop offset="0" stop-color="#ffffff"/>
			<stop offset="1" stop-color="#fce170"/>
		</linearGradient>
		<radialGradient id="g18" cx="0" cy="0" r="1" fx=".002" fy=".077" gradientUnits="userSpaceOnUse" gradientTransform="matrix(-45.893,44.528,38.615,39.799,1083.85,84.092)">
			<stop offset="0" stop-color="#ffff00"/>
			<stop offset="1" stop-color="#000000"/>
		</radialGradient>
		<linearGradient id="g19" x2="1" gradientUnits="userSpaceOnUse" gradientTransform="matrix(-58.896,57.144,29.182,30.077,919.587,20.465)">
			<stop offset="0" stop-color="#ffffff"/>
			<stop offset="1" stop-color="#000000"/>
		</linearGradient>
		<linearGradient id="g20" x2="1" gradientUnits="userSpaceOnUse" gradientTransform="matrix(-78.974,76.625,31.821,32.797,795.888,63.625)">
			<stop offset="0" stop-color="#000000"/>
			<stop offset="1" stop-color="#ffffff"/>
		</linearGradient>
		<linearGradient id="g21" x2="1" gradientUnits="userSpaceOnUse" gradientTransform="matrix(113.733,1.717,1.604,-106.207,783.294,144.02)">
			<stop offset=".031" stop-color="#ff7200"/>
			<stop offset="1" stop-color="#ff0000"/>
		</linearGradient>
		<linearGradient id="g22" x2="1" gradientUnits="userSpaceOnUse" gradientTransform="matrix(-14.441,14.011,16.244,16.742,842.595,66.421)">
			<stop offset="0" stop-color="#ffffff"/>
			<stop offset="1" stop-color="#fce170"/>
		</linearGradient>
		<linearGradient id="g23" x2="1" gradientUnits="userSpaceOnUse" gradientTransform="matrix(-18.686,18.13,10.663,10.989,850.799,95.277)">
			<stop offset="0" stop-color="#ffffff"/>
			<stop offset="1" stop-color="#fce170"/>
		</linearGradient>
		<linearGradient id="g24" x2="1" gradientUnits="userSpaceOnUse" gradientTransform="matrix(-7.596,7.37,8.257,8.51,816.733,80.807)">
			<stop offset="0" stop-color="#ffffff"/>
			<stop offset="1" stop-color="#fce170"/>
		</linearGradient>
		<linearGradient id="g25" x2="1" gradientUnits="userSpaceOnUse" gradientTransform="matrix(-30.024,-30.945,-16.309,15.824,815.307,70.561)">
			<stop offset="0" stop-color="#000000"/>
			<stop offset="1" stop-color="#ffbc00"/>
		</linearGradient>
		<linearGradient id="g26" x2="1" gradientUnits="userSpaceOnUse" gradientTransform="matrix(-41.26,40.033,31.88,32.857,889.861,-4.255)">
			<stop offset="0" stop-color="#ffbc00"/>
			<stop offset="1" stop-color="#000000"/>
		</linearGradient>
		<linearGradient id="g27" x2="1" gradientUnits="userSpaceOnUse" gradientTransform="matrix(-27.044,-27.873,-12.675,12.298,922.89,116.215)">
			<stop offset="0" stop-color="#ffbc00"/>
			<stop offset="1" stop-color="#000000"/>
		</linearGradient>
		<linearGradient id="g28" x2="1" gradientUnits="userSpaceOnUse" gradientTransform="matrix(-31.222,30.293,48.952,50.453,804.756,108.949)">
			<stop offset="0" stop-color="#000000"/>
			<stop offset="1" stop-color="#ffbc00"/>
		</linearGradient>
		<radialGradient id="g29" cx="0" cy="0" r="1" fx=".002" fy=".077" gradientUnits="userSpaceOnUse" gradientTransform="matrix(-45.893,44.528,38.615,39.799,836.769,90.95)">
			<stop offset="0" stop-color="#ffff00"/>
			<stop offset="1" stop-color="#000000"/>
		</radialGradient>
		<linearGradient id="g30" x2="1" gradientUnits="userSpaceOnUse" gradientTransform="matrix(-53.712,-32.273,-17.009,28.308,590.605,75.345)">
			<stop offset="0" stop-color="#000000"/>
			<stop offset="1" stop-color="#ffbc00"/>
		</linearGradient>
		<linearGradient id="g31" x2="1" gradientUnits="userSpaceOnUse" gradientTransform="matrix(-21.182,69.282,55.172,16.868,607.673,8.157)">
			<stop offset="0" stop-color="#ffbc00"/>
			<stop offset="1" stop-color="#000000"/>
		</linearGradient>
		<linearGradient id="g32" x2="1" gradientUnits="userSpaceOnUse" gradientTransform="matrix(-27.044,-27.873,-12.675,12.298,661.731,110.9)">
			<stop offset="0" stop-color="#ffbc00"/>
			<stop offset="1" stop-color="#000000"/>
		</linearGradient>
		<linearGradient id="g33" x2="1" gradientUnits="userSpaceOnUse" gradientTransform="matrix(-31.222,30.293,48.952,50.453,562.519,88.923)">
			<stop offset="0" stop-color="#000000"/>
			<stop offset="1" stop-color="#ffbc00"/>
		</linearGradient>
		<radialGradient id="g34" cx="0" cy="0" r="1" gradientUnits="userSpaceOnUse" gradientTransform="matrix(9.235,0,0,9.235,594.896,92.145)">
			<stop offset="0" stop-color="#ffffff"/>
			<stop offset="1" stop-color="#000000"/>
		</radialGradient>
		<linearGradient id="g35" x2="1" gradientUnits="userSpaceOnUse" gradientTransform="matrix(53.636,0,0,48.035,568.724,66.888)">
			<stop offset="0" stop-color="#8d0000"/>
			<stop offset=".754" stop-color="#c60000"/>
		</linearGradient>
		<radialGradient id="g36" cx="0" cy="0" r="1" fx=".002" fy=".077" gradientUnits="userSpaceOnUse" gradientTransform="matrix(-45.893,44.528,38.615,39.799,594.236,89.499)">
			<stop offset="0" stop-color="#ffff00"/>
			<stop offset="1" stop-color="#000000"/>
		</radialGradient>
		<linearGradient id="g37" x2="1" gradientUnits="userSpaceOnUse" gradientTransform="matrix(-41.741,-25.081,-13.218,21.999,351.708,78.737)">
			<stop offset="0" stop-color="#000000"/>
			<stop offset="1" stop-color="#ffbc00"/>
		</linearGradient>
		<linearGradient id="g38" x2="1" gradientUnits="userSpaceOnUse" gradientTransform="matrix(-16.461,53.841,42.876,13.109,364.972,26.522)">
			<stop offset="0" stop-color="#ffbc00"/>
			<stop offset="1" stop-color="#000000"/>
		</linearGradient>
		<linearGradient id="g39" x2="1" gradientUnits="userSpaceOnUse" gradientTransform="matrix(-21.017,-21.661,-9.85,9.557,406.982,106.367)">
			<stop offset="0" stop-color="#ffbc00"/>
			<stop offset="1" stop-color="#000000"/>
		</linearGradient>
		<linearGradient id="g40" x2="1" gradientUnits="userSpaceOnUse" gradientTransform="matrix(-24.263,23.542,38.043,39.209,329.881,89.289)">
			<stop offset="0" stop-color="#000000"/>
			<stop offset="1" stop-color="#ffbc00"/>
		</linearGradient>
		<radialGradient id="g41" cx="0" cy="0" r="1" gradientUnits="userSpaceOnUse" gradientTransform="matrix(9.235,0,0,9.235,354.324,90.789)">
			<stop offset="0" stop-color="#ffffff"/>
			<stop offset="1" stop-color="#000000"/>
		</radialGradient>
		<radialGradient id="g42" cx="0" cy="0" r="1" fx=".002" fy=".077" gradientUnits="userSpaceOnUse" gradientTransform="matrix(-30.546,29.637,25.701,26.489,353.512,89.426)">
			<stop offset="0" stop-color="#ffff00"/>
			<stop offset="1" stop-color="#000000"/>
		</radialGradient>
		<radialGradient id="g43" cx="0" cy="0" r="1" gradientUnits="userSpaceOnUse" gradientTransform="matrix(9.235,0,0,9.235,109.098,92.538)">
			<stop offset="0" stop-color="#ffffff"/>
			<stop offset="1" stop-color="#000000"/>
		</radialGradient>
		<radialGradient id="g44" cx="0" cy="0" r="1" fx=".002" fy=".077" gradientUnits="userSpaceOnUse" gradientTransform="matrix(-21.654,21.009,18.22,18.778,109.098,92.537)">
			<stop offset="0" stop-color="#ffff00"/>
			<stop offset="1" stop-color="#000000"/>
		</radialGradient>
	</defs>
	<style>
		.s0 { fill: #f4e398 } 
		.s1 { opacity: .1;mix-blend-mode: screen;fill: url(#g1) } 
		.s2 { opacity: .1;mix-blend-mode: screen;fill: url(#g2) } 
		.s3 { fill: #db4003 } 
		.s4 { opacity: .1;mix-blend-mode: screen;fill: url(#g3) } 
		.s5 { opacity: .1;mix-blend-mode: screen;fill: url(#g4) } 
		.s6 { fill: #ff9700 } 
		.s7 { opacity: .5;fill: #db4003 } 
		.s8 { opacity: .5;mix-blend-mode: screen;fill: url(#g5) } 
		.s9 { opacity: .1;mix-blend-mode: screen;fill: url(#g6) } 
		.s10 { opacity: .1;mix-blend-mode: screen;fill: url(#g7) } 
		.s11 { opacity: .4;mix-blend-mode: screen;fill: url(#g8) } 
		.s12 { opacity: .4;mix-blend-mode: screen;fill: url(#g9) } 
		.s13 { opacity: .4;mix-blend-mode: screen;fill: url(#g10) } 
		.s14 { opacity: .4;mix-blend-mode: screen;fill: url(#g11) } 
		.s15 { fill: url(#g12) } 
		.s16 { mix-blend-mode: multiply;fill: url(#g13) } 
		.s17 { fill: #ff6700 } 
		.s18 { fill: url(#g14) } 
		.s19 { opacity: .3;mix-blend-mode: color-dodge;fill: #ffffff } 
		.s20 { fill: url(#g15) } 
		.s21 { fill: url(#g16) } 
		.s22 { opacity: .1;mix-blend-mode: color-dodge;fill: #ffffff } 
		.s23 { fill: url(#g17) } 
		.s24 { opacity: .5;mix-blend-mode: screen;fill: url(#g18) } 
		.s25 { opacity: .1;mix-blend-mode: screen;fill: url(#g19) } 
		.s26 { opacity: .1;mix-blend-mode: screen;fill: url(#g20) } 
		.s27 { fill: url(#g21) } 
		.s28 { fill: url(#g22) } 
		.s29 { fill: url(#g23) } 
		.s30 { fill: url(#g24) } 
		.s31 { mix-blend-mode: screen;fill: url(#g25) } 
		.s32 { mix-blend-mode: screen;fill: url(#g26) } 
		.s33 { mix-blend-mode: screen;fill: url(#g27) } 
		.s34 { mix-blend-mode: screen;fill: url(#g28) } 
		.s35 { opacity: .5;mix-blend-mode: screen;fill: url(#g29) } 
		.s36 { mix-blend-mode: screen;fill: url(#g30) } 
		.s37 { mix-blend-mode: screen;fill: url(#g31) } 
		.s38 { mix-blend-mode: screen;fill: url(#g32) } 
		.s39 { mix-blend-mode: screen;fill: url(#g33) } 
		.s40 { fill: #fce170 } 
		.s41 { fill: #fff2bb } 
		.s42 { opacity: .5;mix-blend-mode: screen;fill: url(#g34) } 
		.s43 { fill: url(#g35) } 
		.s44 { fill: #8d0000 } 
		.s45 { opacity: .5;mix-blend-mode: screen;fill: url(#g36) } 
		.s46 { mix-blend-mode: screen;fill: url(#g37) } 
		.s47 { mix-blend-mode: screen;fill: url(#g38) } 
		.s48 { mix-blend-mode: screen;fill: url(#g39) } 
		.s49 { mix-blend-mode: screen;fill: url(#g40) } 
		.s50 { opacity: .5;mix-blend-mode: screen;fill: url(#g41) } 
		.s51 { opacity: .5;mix-blend-mode: screen;fill: url(#g42) } 
		.s52 { opacity: .5;mix-blend-mode: screen;fill: url(#g43) } 
		.s53 { opacity: .5;mix-blend-mode: screen;fill: url(#g44) } 
	</style>
	<g id="Layer 2">
		<g id="&lt;Group&gt;">
			<g id="&lt;Group&gt;">
				<path id="&lt;Path&gt;" class="s0" d="m1483.2 61.4c3 0.7 5.7-1.2 7.8-3.1 3-2.6 6-5.4 8.9-8.2 0.5 1.1 1.6 1.7 2.8 1.7 0.6-0.1 1.1-0.3 1.7-0.6q2.4-1.2 4.8-2.4 3-1.5 6.1-3c1.1-0.6 2.4-1 3.4-1.7 1.6-1.1 1.1-3.3-0.6-3.9-1.8-0.7-3.4 0.4-5.1 0.5 1.4-1.4 3-2.6 4.7-3.6 1-0.6 2.1-1.2 3.3-1.6 0.6-0.2 1.3-0.4 1.9-0.3 0.6 0.1 1.1 0.4 1.7 0.7 2.3 1 4.4-0.1 6.5-1.1q3.4-1.7 7.1-2.6 3.7-0.9 7.5-1.1 1.9-0.1 3.7-0.1c1.2 0.1 2.5 0.3 3.7 0.3 0.8-0.1 1.7-0.2 2.2-0.9 0.4-0.6 0.4-1.4 0.1-2.1-0.5-0.8-1.5-1-2.3-1.2q-1.8-0.5-3.6-0.8c-5.3-0.8-10.7-0.4-15.7 1.3-0.2-1.6-1.6-2.8-3.2-3.2-2-0.4-3.9 0.7-5.5 1.9-0.1-2.3-2-4.2-4.1-4.8-1.7-0.4-3.4-0.3-5-0.1q-2.5 0.4-4.9 0.9c-3.1 0.7-6.2 1.7-8.8 3.6-1.9 1.4-3.2 3.6-3.8 6-0.7 2.4-0.9 5.2-0.1 7.6-2.2 0.2-4.7 0.7-5.6 3-0.4 1-0.3 2 0.4 2.9q0.1 0.1 0.2 0.2c-2.3 0.5-4.4 1.6-6.4 3-1.3 0.9-2.5 2-3.7 3-1.1 1.1-2.3 2.2-3 3.5-0.6 1.3-0.8 2.7-0.1 4 0.5 1.2 1.7 2 3 2.3z"/>
				<path id="&lt;Path&gt;" class="s0" d="m1486.6 87.5c0.5 1.3 1.5 2.7 3 2.9 1.3 0.2 2.4-0.7 2.9-1.8 0.6-1.3 0.7-2.7 1.1-4 0.5-1.7 1.3-3.3 2.4-4.7 2.1-2.9 5.3-4.7 8-6.9 1.1-1 2.7-2.4 2.2-4.1-0.2-0.5-0.7-1-1.3-1.3 0.9-0.8 1.7-1.9 2.2-3 0.4-0.8 0.7-1.7 0.3-2.6-0.3-0.6-0.9-1-1.6-1.2-1.6-0.5-3.5-0.2-5 0.3-1.4 0.4-2.7 1.2-3.8 2.2-2.2-0.8-4.7-0.3-6.4 1.3-1.8 1.6-2.4 4.1-1.9 6.3-1.7 0.8-2.6 2.6-3.1 4.3-0.3 1-0.4 2.2 0.3 3.1 0.4 0.3 0.9 0.6 1.3 0.6-0.9 2.7-1.7 5.8-0.6 8.6z"/>
				<path id="&lt;Path&gt;" class="s0" d="m1513.4 57.7c-0.9 1-2.5 3.2-1.1 4.4 0.7 0.6 1.5 0.3 2.1-0.1 0.9-0.5 1.7-1.1 2.6-1.6 0.1 0 0.5-0.3 0.6-0.3 0.1 0.1-0.1 0.4-0.1 0.4-0.2 0.4-0.6 0.6-0.8 0.8-0.5 0.6-0.7 1.3-0.2 2 1.2 1.6 3.2 0.1 4.3-0.8 1.6-1.1 3.1-2.3 4.6-3.4 1.6-1.1 3.2-2.2 4.9-2.9q1.3-0.6 2.7-0.9c0.8-0.2 1.6-0.5 2.1-1.2 1.2-1.9-1.5-2.8-2.9-3-1.8-0.3-3.6 0-5.1 0.8-0.4-1-1.5-1.6-2.5-1.6-1.1 0.1-2 0.7-2.7 1.5-0.4-0.9-1.5-1.6-2.6-1.4-2.1 0.3-3.3 2.4-3.5 4.4 0 0.4 0.3 0.5 0.6 0.5-1.2 0.6-2.2 1.4-3 2.4z"/>
				<path id="&lt;Path&gt;" class="s0" d="m1548.2 36.2c-1.2 0.4-2.5 1.1-3.2 2.2-0.7 1-0.9 2.2-0.4 3.3q-2.2 0.8-4.2 2-1.2 0.8-2.2 1.8c-0.7 0.6-1.4 1.3-1.6 2.2-0.1 0.6 0.1 1.4 0.6 1.8 0.8 0.6 1.8 0.1 2.6-0.2 2-0.8 4.1-1.3 6.3-1.6 2.4-0.3 4.8-0.3 7.2 0 1.8 2.4 5.8 2.8 8 0.7 2.3 3.8 7.7 6 11.8 3.9 2.3-1.2 2.5-3.8 1.4-5.9-1.1-2.3-3.5-4.1-5.7-5.3-2.6-1.3-5.6-2-8.5-1.8-1.3-1.7-3.7-2.2-5.5-1.2-1-2.5-4.3-2.5-6.6-1.9z"/>
				<path id="&lt;Path&gt;" class="s0" d="m1562.1 32.3c0.7 0.3 1.5 0.3 2.3 0.4q1.5 0.3 2.8 1c1.8 1 3.3 2.5 5 3.6 1.7 1.1 3.7 1.9 5.7 1.6-0.1 1.3 0.5 2.5 1.5 3.3 1.2 0.8 2.6 0.7 3.8 0 0.6 1.4 2 2.4 3.5 2.3 1.7-0.2 2.9-2.3 3.3-3.7 1.1-3.6-0.7-7.3-4.2-8.5-1.4-0.5-2.9-0.6-4.3-0.2 0.2-0.9 0-2-0.7-2.8-0.8-0.8-2-0.9-3-0.6 0.7-3-0.3-6.3-2.4-8.5-1.3-1.3-3.1-2.3-4.9-2.4-2.3-0.1-3.4 2.2-3.9 4.1-0.7 2.3-0.7 4.8 0 7-1.7-0.8-3.8-1.7-5.3-0.2-1.2 1.2-0.8 3 0.8 3.6z"/>
				<path id="&lt;Path&gt;" class="s0" d="m1584.7 50.9q-1.3-0.1-2.5-0.2c-0.7 0-1.5 0-2.2 0.4q-0.2 0.1-0.3 0.3-0.2 0.1-0.2 0.3-0.1 0-0.1 0.1 0 0.2 0 0.5c-0.1 1.3 0.9 2.2 2.2 2.8 1.8 0.7 3.7 1.2 5.5 2 3.9 1.7 7.7 4.1 10.3 7.6 1.2 1.7 2 4.1 4.1 4.8 0.2 0.1 0.5 0 0.6-0.2 0.3-0.8 0.2-1.5 0-2.2-0.2-0.6-0.6-1.4-0.3-2 0.3-1.1 1.4-0.1 1.8 0.4 0.5 0.7 0.9 1.5 1.3 2.2 1.2 2.3 1.9 4.8 2.1 7.4-0.7-0.5-1.6-0.6-2.5-0.2-0.8 0.5-1.4 1.4-1.3 2.4 0.1 1.3 0.9 2.2 1.3 3.4 0.9 2.6-0.1 5.3 0.1 8 0 1.1 0.3 2.2 1.2 2.9 0.8 0.6 1.9 0.6 2.7 0 0.9-0.8 1.4-2.2 1.7-3.4q0.2-0.6 0.2-1.2 0.1 0.1 0.2 0.2c1.2 0.7 2.6 0.6 3.6-0.2 2.3-1.8 1.8-4.7 0.4-6.8 3.2-0.3 5.4-4.1 6.7-6.6 0.9-1.8 1.6-3.8 1.4-5.8-0.3-1.9-1.5-3.5-2.9-4.7-0.9-0.7-2.7-2.3-3.9-1.8-1.2-3.3-3.3-6.2-5.9-8.5-1.2-0.9-2.8-2-4.1-0.8-0.6 0.6-0.9 1.3-1 2.1-1.5-2.9-3-6-6.1-7.4-2.7-1.2-6.7-0.3-7.4 3-0.3 1.4 0.1 2.8 0.6 4.1-2.2-1.5-4.7-2.5-7.3-2.9z"/>
				<path id="&lt;Path&gt;" class="s0" d="m1598.3 40.8q0.1 0.1 0.1 0.1c1.7 1.1 2.6 2.9 3.8 4.5 0.7 0.9 3.3 3.8 4.5 1.7 0.4-0.9 0.1-2.1-0.3-3q-0.3-0.7-0.7-1.3c-0.2-0.2-0.4-0.4-0.5-0.7-0.2-0.3-0.1-0.5 0-0.8 0.4-0.9 0.8-1.6 0.1-2.5-0.7-0.8-1.6-1.7-2.5-2.3-1-0.8-2.2-1.4-3.5-1.6-0.6 0-1.2 0-1.8 0.2-0.6 0.2-1.5 0.9-2 0.6-0.3-0.1-0.7 0-0.8 0.3-0.6 2.4 1.2 4.7 3.6 4.8z"/>
				<path id="&lt;Path&gt;" class="s0" d="m1547.2 78c-0.3 1.2 0.6 2.2 1.7 2.5 1.4 0.4 2.8-0.4 4-1.1 1.3-0.8 2.5-1.7 3.9-2.4 1.5-0.6 3.1-0.8 4.6-0.5 1.6 0.3 2.8 1.2 4.2 2 1 0.5 2.2 0.9 3.4 0.5 1-0.3 1.8-1.2 1.7-2.4-0.1-1.5-1.6-2.5-2.9-3.1-1.1-0.4-2.2-0.7-3.4-0.9 0.2-1.1-0.2-2.3-1-3.1-1.2-1.3-3.1-1.5-4.8-1.3-3.4 0.4-7.5 1.2-9.6 4.2-0.5 0.7-0.9 1.7-0.8 2.5 0 0.5 0.2 0.9 0.6 1.1-0.6 0.6-1.4 1.1-1.6 2z"/>
				<path id="&lt;Path&gt;" class="s0" d="m1542.5 79.6q-0.3-0.3-0.7-0.4-0.1-0.1-0.1-0.3c-0.2-0.8-1.1-1.3-1.9-1.3-1.5-0.1-2.9 1.1-3.1 2.6-2.1 0-3.8 1.8-4.1 3.9-0.1 1.1 0.1 2.3 1.2 2.8 0.6 0.3 1.2 0.2 1.8 0-0.5 1.3-0.6 2.7 0.4 3.8 1.1 1 2.8 1.2 4.1 0.6 1.6-0.8 2.5-2.5 2.9-4.1 0.2-0.9 0.3-1.8 0.2-2.7q-0.1-0.7-0.5-1.2c-0.1-0.2-0.2-0.3-0.3-0.5-0.2-0.3 0-0.4 0.1-0.7 0.4-0.7 0.7-1.8 0-2.5z"/>
				<path id="&lt;Path&gt;" class="s0" d="m1564.7 105.9c0.7-0.8 1.4-2.1 0.3-2.9-0.6-0.3-1.3-0.5-1.9-0.6q-1.2-0.2-2.4-0.4c-2.8-0.3-5.9-0.3-8.4-1.8-1.2-0.8-1.9-1.9-2.5-3.2-0.6-1.2-1.3-2.4-2.6-2.9-1.1-0.5-2.4 0-3 1.1-0.3 0.6-0.4 1.4-0.3 2.1-1-0.4-2.3-0.2-2.8 0.9-0.5 0.9-0.2 2 0.4 2.8q0.1 0.1 0.2 0.2c0.5 1.6 1.3 3.1 2.5 4.3 1.5 1.5 3.6 2.4 5.7 2.4 1 2.4 3.4 3.9 6 3.6 1.3-0.2 2.7-0.8 3.5-1.8 0.4-0.5 0.6-1.2 0.5-1.8 1.8 0.2 3.7-0.6 4.8-2z"/>
				<path id="&lt;Path&gt;" class="s0" d="m1567 100.5c1-0.1 2-0.5 2.8-1.1 0.4 0.9 1.2 1.5 2.2 1.7 1.4 0.2 2.6-0.6 3.4-1.7 1.6-2.2 1.2-5.7-1.2-6.8 0.2-0.3 0.3-0.7 0.4-1.1 0.2-1.1 0.3-2.2-0.2-3.2-0.5-1.1-1.8-2-3-1.7 0-1.3-0.7-2.6-1.8-3.5-0.7-0.6-1.8-1-2.7-0.7q-0.4 0.1-0.6 0.4c-0.7-0.6-1.5-1.1-2.4-1.2-0.9 0-1.9 0.4-2.3 1.3-1.2 2.3 2.3 3 3.5 3.9 2.1 1.4 2.9 4.2 2.3 6.5-0.4 1.3-1.1 2.5-2 3.5-0.7 0.6-2.1 1.4-1.7 2.5 0.4 1.1 2.3 1.2 3.3 1.2z"/>
				<path id="&lt;Path&gt;" class="s0" d="m1579.1 86.7c0.5-0.8 0.5-1.8 0.5-2.7-0.1-0.8-0.3-1.6-0.9-2.1-0.3-0.2-0.3-0.2-0.3-0.6q0-0.3 0-0.7c0-0.4 0-0.9-0.2-1.4-0.3-0.8-0.9-1.5-1.8-1.7-0.9-0.1-1.7 0.4-2 1.2-0.2 0.3-0.3 0.7-0.3 1 0.2 1.1 0.5 2.2 0.7 3.2 0.2 1 0.4 2.1 0.8 3 0.2 0.8 0.7 1.5 1.5 1.7 0.8 0.2 1.6-0.3 2-0.9z"/>
				<path id="&lt;Path&gt;" class="s0" d="m1531.2 107.3c0.3 0.9 1.1 1.6 1.9 2.1 0.9 0.5 1.9 0.7 2.9 0.9 0.7 0.1 0.8 0.5 1 1.1q0.3 0.7 0.9 1.4c0.6 0.9 1.5 1.6 2.4 2.1 0.8 0.3 2.1 1 2.8 0.3 0.7-0.8 0.7-2.1 0.3-3-0.5-1.2-1.4-2.1-2.2-2.9q-1.7-1.8-3.4-3.5c-1-1-2.4-1.9-3.1-3.2 0.1-0.2 0.1-0.4 0-0.6-0.7-0.7-1.5-1.7-2.5-2-0.9-0.2-1.7 0.2-2.2 1-0.5 0.7-0.5 2-0.3 2.9 0.2 0.7 1 1.2 1.7 1.6-0.3 0.5-0.4 1.2-0.2 1.8z"/>
				<path id="&lt;Path&gt;" class="s0" d="m1512.6 134.7c1.4 1.8 3.1 3.3 4.9 4.7 3.4 2.6 7.7 4.7 12.1 4.2 1.8-0.3 3.7-1 4.7-2.6 1.7 1.5 3.7 2.9 6 2.2 1.3-0.4 2.2-1.8 2.2-3 0.9 0.5 2 0.9 3.2 0.7 1.1-0.2 2.2-1.2 2.4-2.5 0.1-1.3-1-2.2-2.2-2.4-0.7-0.1-1.4-0.1-2.2-0.3-0.9-0.2-1.8-0.6-2.6-1.1-5.7-3.5-10.7-8.5-14.5-14-1-1.4-1.8-3-2.8-4.3-1-1.3-2.2-2.3-3.9-2.1-0.1 0.1-0.3 0.2-0.3 0.4-0.5 2 0.4 4.1 2.1 5.3-0.9-0.1-1.7-0.5-2.4-1q-1.5-0.8-2.7-1.9c-1.7-1.5-3.1-3.2-4.3-5-2.4-3.8-3.8-8.2-4.2-12.6-0.3-2.7 0.1-5.6-1.1-8.1q-0.1-0.1-0.1-0.1 0-0.1-0.1-0.2c-0.4-0.7-1.3-0.9-2.1-0.8-0.8 0.1-1.3 0.6-1.7 1.3-1.1 1.8-1.1 3.7-0.8 5.7 0.3 2.2 0.5 4.5 0.7 6.7-1.2-0.5-2.7-0.4-4 0.1-1.6 0.7-2.7 2.1-3.2 3.7-1 3.5 1 7 3.9 8.8-1.4 3.4-0.9 7.4 1.6 10.2 2.3 2.7 6.1 3.8 9.5 2.9-0.1 1.9 0.8 3.6 1.9 5.1z"/>
				<path id="&lt;Path&gt;" class="s0" d="m1494 118.6c-1.1-3.3-2.2-6.6-2.5-10.1-0.1-1.9-0.2-3.7-0.3-5.5q-0.1-1.3-0.3-2.5c-0.1-0.7-0.2-1.3-0.6-1.9-0.4-0.5-0.9-0.8-1.5-0.6-0.7 0.2-1 1-1.2 1.6-0.4 1.2-0.4 2.4-0.2 3.6-0.4-0.3-0.9-0.5-1.5-0.6-1-0.1-1.9 0.3-2.5 1.2-0.6 1-0.7 2.3-0.7 3.4 0 0.7 0.1 1.3 0.4 1.9q-0.2 0-0.4 0.1c-0.7 0.6-1 1.7-1 2.6-0.1 1.5 0.6 3 1.6 4.1-1 0.4-1.9 1.4-2.3 2.5-0.7 1.8-0.3 4.1 0.2 5.9 0.5 1.8 1.5 3.4 2.9 4.5 1.4 1 3.3 1.5 4.9 0.9 1-0.4 1.9-1.2 2.4-2.2 0.3 0.7 0.8 1.3 1.5 1.6 1.2 0.5 2.4-0.1 2.8-1.3 0.5-1.3 0-3-0.3-4.3-0.4-1.6-0.9-3.3-1.4-4.9z"/>
				<path id="&lt;Path&gt;" class="s0" d="m1481.7 98.7c0.1-0.8 0-1.7-0.6-2.3q-0.4-0.4-0.9-0.5c-0.6-0.5 0-1.7 0.3-2.2 0.3-0.8 0.7-1.5 0.6-2.4-0.2-0.7-0.6-1.5-1.1-2.1-0.4-0.5-1-1-1.7-0.9-1.8 0.1-2.1 2.2-2.7 3.5-0.3 0.6-0.5 1.3-0.2 2q0.2 0.5 0.6 0.7c0.1 0.1 0.3 0.1 0.5 0.2-1 0.7-1.5 1.9-1.3 3.2 0.3 1.6 1.7 3.1 3.3 3.4 1.8 0.3 3-1 3.2-2.6z"/>
				<path id="&lt;Path&gt;" class="s0" d="m1474.9 107.3c-0.2-0.4-0.6-0.6-1-0.7 0.2-1.4 0.3-3.6-1.1-4.1-0.8-0.2-1.5 0.3-1.9 0.9-0.5 0.8-0.5 1.8-0.4 2.8-1.7 0.2-2.6 2.1-2.4 3.8 0.1 0.9 0.4 1.9 1.2 2.4q0.4 0.2 0.7 0.2c-0.2 0.9-0.1 2 0.2 2.9 0.4 1.5 1 3.3 2.7 3.6 0.6 0.1 1.3-0.1 1.7-0.6 0.6-0.6 0.7-1.5 0.8-2.3q0.4-3 0.2-6c-0.1-1-0.1-2.2-0.7-2.9z"/>
				<path id="&lt;Path&gt;" class="s0" d="m1600.6 126.7c1.1-1.2 1.8-2.8 1-4.4-0.4-0.9-1.3-1.5-2.3-1.6 1.6-1.7 2.2-4.2 1.4-6.5-0.1-0.3-0.5-0.5-0.8-0.2-3.6 3.8-5 9.1-8.4 13-3.4 4-8.3 6.4-13 8.5q-2.8 1.3-5.6 2.5c0.6-0.8 0.9-1.7 1.1-2.6 0.1-0.2 0-0.5-0.2-0.6-4-2-8.2 0.3-11.8 2-2.1 1-4.1 1.6-6.4 1.6-1.6 0.1-4.1 0.5-4.2 2.6 0 1.2 0.8 1.9 1.8 2.3-1.8 0.7-3.5 1.9-4.3 3.6-0.7 1.3 0.4 2 1.4 2.5q1.6 0.7 3.3 0.8c-0.7 1.3-0.1 3 1.1 4 1.8 1.5 4.5 2.1 6.8 2.2 2.6 0.2 5.2-0.2 7.7-1 2.4-0.7 4.7-1.8 6.5-3.5 1.4-1.3 2.5-3.1 3-5 1 1.7 2.8 2.8 4.7 3.4 3 0.8 6.1 0 8.7-1.5 2.9-1.7 5.5-4.1 7.6-6.6 2.2-2.5 4.1-5.5 4.6-8.8 0.3-1.8 0.2-3.6-1-5.1-0.7-0.8-1.7-1.4-2.7-1.6z"/>
				<path id="&lt;Path&gt;" class="s0" d="m1615.1 105.4q0.5-0.8 0.6-1.7c0.2-1 0.2-2.3-0.4-3.1-0.5-0.8-1.9-0.4-2.5-0.1q-0.2 0.2-0.4 0.4-0.1-1.1-0.2-2.1c-0.1-0.8-0.3-1.8-1.2-2.2-0.8-0.2-1.8 0.2-2.2 0.9-0.6 0.9-0.4 2-0.3 3 0.7 4.6 0 9.5-2 13.7q-0.9 1.8-2 3.4c-0.7 1-1.4 2-1.4 3.3 0 0.2 0.2 0.4 0.4 0.4 0.7 0.3 1.4 0.1 2-0.3q0 0.3 0.2 0.6c0.4 1.1 1.3 1.7 2.4 1.7 1.9 0.1 3.2-1.1 3.9-2.6 0.3 0.5 0.8 0.9 1.4 1.1 0.8 0.2 1.7 0.1 2.4-0.4 0.8-0.5 1.2-1.4 1.6-2.2 1.6-3.4 4-8.5 1.2-11.9-0.9-1.1-2.2-1.9-3.5-1.9z"/>
				<path id="&lt;Path&gt;" class="s0" d="m1612 127.7q-0.4 0.3-0.7 0.7c-0.2 0-0.5 0-0.6 0.3-0.5 1.7-1.1 3.3-1.9 4.9-0.7 1.2-2.2 2.6-1.7 4.2 0.5 1.5 2.3 1.2 3.3 0.4 1.1-0.8 1.7-2.1 2-3.4 0.9-0.2 1.5-1 1.9-1.9 0.6-1.2 1.1-2.8 0.6-4.1-0.5-1.1-1.8-1.8-2.9-1.1z"/>
				<path id="&lt;Path&gt;" class="s0" d="m1626.4 91.6c-0.4-0.3-0.9-0.4-1.3-0.3 0-0.6-0.3-1.3-0.7-1.7-0.8-0.6-1.6-0.1-2.1 0.6-0.3 0.4-0.6 0.9-0.8 1.4-0.3 0.5-0.7 1-0.8 1.5-0.2 1 0.2 1.7 1.2 1.9 0.2 0.1 0.5 0.1 0.6 0.4 0 0.2-0.2 0.6-0.3 0.8q-0.3 1-0.7 2c-0.5 1.3-0.9 2.5-1.1 3.8-0.1 0.9-0.3 2.8 0.7 3.2 0.9 0.2 1.9-0.1 2.6-0.7 1.7-1.4 1.9-4 0.9-6 1.8-0.6 2.6-2.5 2.7-4.3 0-0.9-0.1-2-0.9-2.6z"/>
				<path id="&lt;Path&gt;" class="s0" d="m1556.7 161.7c-4.3-0.8-8.6-1.5-12.9-2.3-3.9-0.6-7.8-1.4-11.3-3.1-1.7-0.8-3.1-1.9-4.6-3-1.4-1-3-2-4.7-2.3-0.9-0.2-1.9-0.2-2.6 0.4-0.6 0.5-0.8 1.2-0.7 1.9 0.1 1.1 0.8 1.8 1.6 2.3-2.6 0.5-4.8 2.4-5.7 4.9-0.3 0.8-0.4 1.9-0.1 2.7 0.3 0.9 1.2 1.4 2 1.8 1.6 0.8 3.5 1.2 5.4 1.1 1.6-0.2 3.2-0.7 4.6-1.5-0.8 4.5 1.2 9.3 5.2 11.7 2 1.3 4.6 1.9 7 1.7 2.4-0.2 4.9-1.1 6.3-3.1 1-1.5 0.9-3.2 0.4-4.8 1.3 0.8 2.9 1.3 4.3 0.7 0.9-0.4 1.4-1.2 1.4-2.2 1.7 0.8 3.7 1 5.1-0.6 0.5-0.7 0.9-1.6 0.6-2.5q0.2 0 0.3 0c0.6-0.1 1-0.6 1.1-1.2 0.2-1.7-1.4-2.4-2.7-2.6z"/>
				<path id="&lt;Path&gt;" class="s0" d="m1513.8 150.1q-2-1.5-4.1-3c-1.2-0.9-2.5-1.8-3.5-2.9-0.9-1-1.5-2.3-2.1-3.5-0.6-1.2-1.3-2.4-2.4-3.1-0.9-0.6-2.2-0.7-2.9 0.4-0.6 1.1-0.1 2.5 0.6 3.5 0.4 0.5 0.8 1 1.3 1.4-0.7-0.2-1.3-0.2-2 0.2-1 0.6-1.2 2.1-0.9 3.2 0.6 2.2 3 3.5 5.3 3.4-0.2 0.5-0.2 1.1-0.1 1.6 0.4 1.1 1.4 1.9 2.4 2.4 1.1 0.6 2.5 1 3.6 0.4 0.6-0.3 1-0.8 1.2-1.3q0 0 0 0c0.9 0.9 2 1.9 3.3 1.9 1.1 0.1 2.2-0.7 2.4-1.8 0.3-1.4-1.1-2.1-2.1-2.8z"/>
				<path id="&lt;Path&gt;" class="s0" d="m1596.5 164.5c-0.1-0.3-0.3-0.4-0.5-0.4q-0.1 0-0.2 0c0.5-0.6 0.8-1.3 0.6-2.1-0.2-1.2-1.3-1.6-2.4-1.2-0.6 0.3-1.2 0.7-1.7 1.2q-1 0.6-1.9 1.2-1.8 1.2-3.7 2.1c-5.2 2.5-11 3.7-16.7 3.5-1.2 0-2.9-0.3-2.9 1.3-0.1 1.3 0.9 1.9 2 2.2-1.1 0.6-1.8 1.7-1.8 2.9-0.1 1.9 1.4 3.5 3.1 4.1 2.1 0.6 4.4 0 6.4-0.6 1.8-0.5 3.6-1.2 5.2-2.3 1.4-1 2.5-2.3 3.2-3.8 1.8 1.9 4.6 2.7 7.1 1.7 2.6-1 4.4-3.8 4-6.6 0-0.1-0.1-0.3-0.3-0.3 0.5-0.9 0.7-1.9 0.5-2.9z"/>
			</g>
			<path id="&lt;Path&gt;" class="s1" d="m1567 49.4c0 0 37.1-12 15.1 2.7 0 0 53-9.2 10.1 8.5 0 0 71.4-15.3 40.4 0 0 0 20.8-5.2 8.5 1.9-12.4 7.1-4 12.3 4.9 12 0 0-10.6 2.9-12.4 8.7-1.9 5.8 3.7 8.2 3.7 8.2 0 0-1.9 1.3-0.6 3.5 1.3 2.3 3.1 3 3.1 3 0 0-6.4 0.7-8.5 4.4-2.1 3.7 5.1 4.1 5.1 4.1 0 0-8.8 3.3-6.8 5.4 2 2.1 51-13.9-24.7 24.5 0 0 63.1-15.6 43.3-14.8 0 0 24.9-9.8 12.3-13.2 0 0 7.4-3.7 6.2-7.7-1.1-4-7.5-1.1-7.5-1.1 0 0 3.1-4.4-1.4-5.1-4.5-0.7-7.5 0-7.5 0 0 0 35.3-13.9 23.7-14.4 0 0 7-7.5 6.6-15.1-0.4-7.7-24.9-8.9-28.9-7.8 0 0 1.8-2.7-2.3-5-4.1-2.4-18.1 0-18.1 0 0 0 5.2-2.4 3.3-4.9-2-2.6-11.8 0.3-11.8 0.3 0 0 0.6-3.3-4.5-5.4-5.1-2.1-19.2 2.9-19.2 2.9 0 0 6.7-4.3 5-5.9-1.7-1.6-30.2 6.9-37.1 10.3z"/>
			<path id="&lt;Path&gt;" class="s2" d="m1542.1 161.2c0 0-44.5 23.9-56.3 21.4-11.9-2.6 6.9-12.6 6.9-12.6 0 0-13.4 6.1-17.3 2 0 0-27.2 1.5-19.9-3.5 7.2-5.1 15.3-6.2 15.3-6.2 0 0-21.6 6-21.6 1.6 0-4.4 8.4-8.2 8.4-8.2 0 0-15.3 2.6-16.2-6-0.8-8.6 8.1-15.9 8.1-15.9 0 0-8.5 1.4-8.1-3.2 0.3-4.7 5.1-7.3 5.1-7.3 0 0-5.4-1.7-2.7-10.3 2.7-8.7 23.3-13 23.3-13 0 0-38.7 29.6-2.6 20.2 0 0-22.4 14.6-0.8 9.4 0 0-34 29.5 20.4 7.8 0 0-27.4 21.2 11.9 15.1 39.2-6.1 13.3 8.5 13.3 8.5 0 0 6.7-3.9 10.9-1.9 4.3 1.9 3 3.6 3 3.6 0 0 3.8-2.7 7.4-1.1 3.5 1.6 11.5-0.4 11.5-0.4z"/>
			<g id="&lt;Group&gt;" style="opacity: .3">
				<path id="&lt;Path&gt;" class="s3" d="m1497.6 52.3q1.2-1.1 2.3-2.2c0.4 0.8 1.1 1.3 1.9 1.6-1.4-3.5 6.2-7.8 11.2-11 1.4-1.4 3-2.6 4.7-3.6 1-0.6 2.1-1.2 3.3-1.6 0.6-0.2 1.3-0.4 1.9-0.3 0.6 0.1 1.1 0.4 1.7 0.7 1.5 0.6 2.9 0.4 4.4-0.2-0.2-0.5 0-1.2 0.6-2.2 1.7-2.8 3.9-4.9 6-6.4q-0.9 0.2-1.8 0.5-0.1-0.8-0.6-1.4c-0.7 3.8-5.9 9.4-8.7 6.5-1.5-1.4-0.1-4.4 1.9-7.3q-0.6 0.4-1.3 0.9c0-1.1-0.5-2.1-1.2-2.9 0.2 5-3.7 8.4-14.6 13.8-6.6 3.2-9.8 1.8-11.4-0.3q0.1 1.3 0.5 2.6-0.6 0.1-1.2 0.2c3.1 1.4 8.8 4.4 2.9 4.8-3 0.2-5.4-1-7.1-2.4q-0.1 0.2-0.2 0.4c-0.4 1-0.3 2 0.4 2.9q0 0.1 0.1 0.2c5.2 1 5.3 4.1 4.3 6.7z"/>
				<path id="&lt;Path&gt;" class="s3" d="m1576.5 36.7c1.4 0.8-0.3 1.6-1.4 2 0.9 0.2 1.9 0.3 2.8 0.2q0 0.7 0.2 1.4c0.4-0.1 1.3 0 2.8 0.5 1.3 0.4 1.5 1.1 1.3 1.8q0.5-0.1 1-0.4c0.3 0.9 1 1.5 1.8 1.9-2.3-1.6 0.4-5.2 0.4-5.2 0 0-4.9 3.3-6-1.5-0.7-2.7 1.4-4.5 3.4-5.5q-0.7 0.1-1.3 0.2 0.1-0.6 0-1.3c-2.1 2.3-7 7.2-6.4 2.7 0.5-3.1 2.7-4.4 4.5-4.8-0.5-0.2-1.2-0.2-1.8 0q0.2-0.9 0.2-1.9c-0.7 2.3-2.1 4.6-4.8 5.6-4.6 1.6-6.4-4.3-7.1-7.6-0.1 1.4 0.1 2.8 0.4 4.1q-0.2-0.1-0.4-0.2c0.3 0.5 0.7 1.4 1.5 2.9 2.1 3.9 7.1 4 8.9 5.1z"/>
				<path id="&lt;Path&gt;" class="s3" d="m1598.8 40.4c0 0 3.5-0.7 5.3 1.3 0 0-2.7-3.2-2.6-4.6 0 0-0.4 2.5-5-0.9 0 0 2.6 2.1 2.3 4.2z"/>
				<path id="&lt;Path&gt;" class="s3" d="m1575.7 80c0 0 0.5 1.6-0.6 2.6 0 0 1.6-1.1 2.9-1 0 0-1.7-0.3-2.3-1.6z"/>
				<path id="&lt;Path&gt;" class="s3" d="m1623 95.4c0 0 1.7 1.4 1.5 2.4 0.3-0.9 1.4-4.5 0.4-5.8 0 0-0.3 3.7-1.9 3.4z"/>
				<path id="&lt;Path&gt;" class="s3" d="m1611.5 129.9c-0.3 3.7-2.5 4.9-2.5 4.9 1.4-0.7 3.4-0.6 3.4-0.6-1.1-0.9-0.9-4.3-0.9-4.3z"/>
				<path id="&lt;Path&gt;" class="s3" d="m1536.7 108.9c-0.2-0.9-0.6-2.6-0.4-3.9 0 0-1.8 1.1-4.2 0 0 0 3.8 2 4.6 3.9z"/>
				<path id="&lt;Path&gt;" class="s3" d="m1478.5 92.9c-0.2 0.8-0.8 2.4-1.7 1.9 0 0 1.4 2 0.7 3.8 0 0 1.1-2.6 2.5-2.5 0 0-1.9-1-1.5-3.2z"/>
				<path id="&lt;Path&gt;" class="s3" d="m1540 81.6c0 0-1 2.3-2.7-0.3 0.3 0.4 0.6 1.8-1.1 5.3 0 0 3.4-2.6 5.9-3.3 0 0-3.2 0.7-2.1-1.7z"/>
				<path id="&lt;Path&gt;" class="s3" d="m1473.7 107.8c-0.8 3.7-3.1-1-3.1-1 2.3 4.8-0.3 5.8-0.3 5.8 3.1-0.3 4.4 2.3 4.4 2.3-1.1-2.2-1-7.1-1-7.1z"/>
				<path id="&lt;Path&gt;" class="s3" d="m1501.6 143.2c0 0 4.1 4.5 2.1 6.3 0 0 4.3 0.5 6.2 2.4 0 0-2.7-3.7-2.7-6 0 0-1.7 1.2-5.6-2.7z"/>
				<path id="&lt;Path&gt;" class="s3" d="m1548.8 76q-0.3 0.3-0.6 0.5c1.1-0.1 3-0.1 5 0.7 0.9 0.4 1.2 0.8 1.3 1.2 0.8-0.5 1.5-1 2.3-1.4 1.5-0.6 3-0.8 4.6-0.5-0.8-2.5 2.1-3.3 4.9-3.5q-1-0.2-1.9-0.4 0.1-0.8-0.1-1.5c-1.3 3.9-7.5 4-12.4 4.7-2.3 0.3-3.3-0.2-3.7-0.9 0 0.5 0.2 0.9 0.6 1.1z"/>
				<path id="&lt;Path&gt;" class="s3" d="m1574.2 92.6c0.2-0.3 0.3-0.7 0.4-1.1q0.1-0.7 0.1-1.4c-1.4 1.3-3.6 2.8-5.9 1.5-2.7-1.6 1-4.2 3.2-5q-0.3-0.1-0.6 0 0-0.9-0.4-1.8c-0.4 1.5-1.3 3.4-3.2 3.5-2.3 0.3-0.5-3.7 0.6-5.9-0.5-0.1-1-0.2-1.5 0q-0.4 0.1-0.6 0.4-0.6-0.5-1.2-0.8c0.8 1 2 2.9 1.2 5q-0.2 0.3-0.3 0.5c1.4 1.6 1.9 3.8 1.4 5.8q-0.3 1.1-0.9 2c1.6 0.3 3.7 1.3 2.2 4.7q0.6-0.2 1.1-0.6c0.4 0.9 1.2 1.5 2.2 1.7q0.7 0.1 1.3-0.1c-1.9-0.9-4.4-2.9-2.9-7.1 1.2-3.5 3.8-1.3 5.8 1.4-0.2-1.2-0.9-2.2-2-2.7z"/>
				<path id="&lt;Path&gt;" class="s3" d="m1558 104.4c0.1-1.3 0.3-2 0.6-2.6-2.2-0.2-4.4-0.4-6.3-1.6-1.2-0.8-1.9-1.9-2.5-3.2q-0.3-0.6-0.6-1.1c-0.3 2.1-1.1 4.5-3.6 3.6-1.7-0.7-1.8-2.6-1.3-4.5q0 0.1-0.1 0.2c-0.3 0.6-0.4 1.4-0.3 2.1-0.5-0.2-1.1-0.2-1.6-0.1 1.1 0.5 2.3 1.3 2.8 2.8 0.6 1.9-1.6 1.7-3.4 1.3 0.5 1.3 1.1 2.5 1.9 3.5 1-1.9 3.2-4.7 7.1-4.8 4.9-0.2-0.3 5.8-2.1 7.8q0.7 0.1 1.3 0.1c0.5 1.1 1.3 2.1 2.3 2.7-0.6-2.4-1.1-6.3 2.1-7 3.4-0.7 4.5 3.6 4.7 6.6q0.2-0.3 0.4-0.5c0.4-0.5 0.6-1.2 0.5-1.8 0.9 0.1 1.9-0.1 2.8-0.5-2 0.1-4.7-0.2-4.7-3z"/>
				<path id="&lt;Path&gt;" class="s3" d="m1528 57.4q-0.4-0.6-0.6-1.4c-0.6-2.2-0.1-3.6 0.6-4.5q-0.5 0.2-0.9 0.4-0.1-0.2-0.2-0.3c0.4 2.7-0.1 7.7-2.7 4.1-1.9-2.6-1.6-4.1-0.9-5-0.5 0.3-1 0.7-1.4 1.1q-0.1-0.2-0.2-0.4c1.1 2.1 2.7 5.9-1.2 5.8-5.1-0.3-4-4.4-3.9-4.9-0.4 0.7-0.7 1.6-0.8 2.5 0 0.4 0.3 0.5 0.6 0.5q-0.7 0.3-1.3 0.8c0.6 0.1 1.6 0.6 2.6 1.9 0.5 0.7 0.2 1.5-0.3 2.2 0.1-0.1 0.2-0.1 0.2-0.1 0 0.1 0 0.2-0.1 0.3 1.1-0.8 2.4-1.5 3.6-1.1 0.9 0.2 1.1 1.1 1.1 2.2q1.6-1.2 3.2-2.4 1.3-0.9 2.6-1.7z"/>
				<path id="&lt;Path&gt;" class="s3" d="m1554 36.9c0 1.8-0.5 4.3-4 4.5-3.3 0.2-4.9-0.1-5.6-0.3q0.1 0.3 0.2 0.6-0.7 0.2-1.3 0.5c2.7-0.6 7.2-0.9 9.5 2.1 1.3 1.6 0.9 2.7 0 3.3q0.2 0.1 0.5 0.1 0.5 0.7 1.2 1.1c-0.9-1.7-1-3.7 1.3-5.8 4.5-3.9 5.4 2.2 5.1 5.8q0.2-0.2 0.4-0.4 0.2 0.4 0.5 0.7c-0.7-2.2-1.2-4.9-0.3-7.4 0.4-1.1 0.9-1.8 1.4-2.3q-1.3-0.2-2.6-0.1-0.2-0.2-0.3-0.3c-0.1 1.2-0.9 2.3-3.2 2.7-5 1-2.7-2.5-1.6-3.8q-0.2 0.1-0.4 0.2c-0.2-0.5-0.5-0.9-0.8-1.2z"/>
				<path id="&lt;Path&gt;" class="s3" d="m1589 52.2c0.3 0.3 11.2 9.8 13.3 16.2q0-0.6-0.2-1.3c-0.2-0.6-0.6-1.4-0.3-2q0-0.1 0-0.2c-0.4-1.3-0.5-2.7 0.7-3.7 2.7-2 7.9 14.6 4.4 12.9q0.1 0.5 0.1 1c-0.5-0.4-1.1-0.5-1.8-0.4 1.6 0.8 4.1 3.8 4.8 14.2q0.1-0.4 0.2-0.7 0.2-0.6 0.2-1.2 0.1 0.1 0.2 0.2c1.1 0.7 2.5 0.6 3.5-0.2-2.3-1.5-5.5-4.3-4.8-7.9 0.8-3.5 3.8-0.4 6 2.4q-0.3-0.7-0.7-1.3c1.4-0.1 2.7-1 3.8-2.1-2.5 1.1-5.9 1.3-8.9-3.4-4.5-6.9 3.4-11.9 7.6-13.4-0.5-0.1-0.9-0.2-1.2 0q-0.5-1.3-1.1-2.5c-1 3.2-2.8 6.4-6.6 5.9-5.8-0.8-3.4-9.4-2.2-12.7q-0.1 0-0.1 0c-0.6 0.6-0.9 1.3-1 2.1q-0.6-1.1-1.2-2.3c0.5 3.5 0.5 8.4-2.9 9-3.9 0.7-7.7-6.2-9.5-10 0 1 0.3 2.1 0.7 3q-1.4-0.9-3-1.6z"/>
				<path id="&lt;Path&gt;" class="s3" d="m1613.1 113.1c1-3.9 1.9-6.3 2.7-7.6q-0.4-0.1-0.7-0.1 0.4-0.8 0.6-1.7c-1 1.8-2.4 3.9-3.3 3.7-1.2-0.4 0.1-5 1.3-7.2-0.3 0.1-0.7 0.2-0.9 0.3q-0.2 0.2-0.4 0.4-0.1-1.1-0.2-2.1c-0.1-0.6-0.2-1.2-0.5-1.6 0.4 3 1.5 12-3.1 9.4-0.3 2.7-1 5.2-2.1 7.6q-0.2 0.3-0.3 0.6c0.8 1.2 1.1 3.3-1.6 6.6q0.5-0.1 0.9-0.4 0 0.3 0.2 0.6c0.2 0.7 0.7 1.1 1.3 1.4-0.8-1.8-0.8-4.7 2-9.1 4.8-7.6 3.1 3.6 2.3 7.9q0.4-0.5 0.7-1.1 0.3 0.5 0.9 0.8c-0.7-1.1-1.1-3.5 0.2-8.4z"/>
				<path id="&lt;Path&gt;" class="s3" d="m1575.9 142.1c1.7 2.9 1.6 5.5 1.2 8.1 0.8-1 1.3-2.1 1.6-3.3 1 1.7 2.8 2.8 4.7 3.4 1 0.3 2 0.4 3 0.3-5.3-1.2-9.2-6.5-10.5-8.5z"/>
				<path id="&lt;Path&gt;" class="s3" d="m1578.5 135.5q-2.8 1.3-5.6 2.5 0.6-0.8 0.9-1.8c-1.3 2.5-4.6 4.3-4.6 4.3 15.7-1.9 22.2-11.1 24.8-17.1-0.8 1.3-1.6 2.5-2.5 3.6-3.4 4-8.3 6.4-13 8.5z"/>
				<path id="&lt;Path&gt;" class="s3" d="m1596 164.1q-0.1 0-0.2 0 0.2-0.3 0.4-0.5c-1 0.7-2.4 1.6-4.4 2.4-5.4 2.2-4.2-0.1-2.6-2q-1.2 0.7-2.5 1.3c-3.3 1.6-6.9 2.7-10.6 3.2 4.6 2.2-4 2.9-8.4 3.1 0.3 0.3 0.8 0.6 1.4 0.7-0.9 0.5-1.5 1.4-1.7 2.3 3.3-2.6 12.4-5.2 15.7-2.7 0.8 0.7 1.1 1.4 1.2 2.2q0.6-0.7 0.9-1.5c0.7 0.7 1.6 1.3 2.6 1.7-2.5-1.6-3.5-3.3 0.3-4.8 5-1.9 7.2-1.2 8.2-0.1q0.1-0.8 0-1.7c0-0.1-0.1-0.3-0.3-0.3q0.1-0.2 0.2-0.4c-2.1 0.6-7.3 2-4.4-0.2 1.7-1.2 3.4-1.7 4.8-1.7q-0.1-0.3-0.1-0.6c-0.1-0.3-0.3-0.4-0.5-0.4z"/>
				<path id="&lt;Path&gt;" class="s3" d="m1558 165.5q0.2 0 0.3 0 0.4-0.1 0.7-0.4c-4.6 0.5-10.4-1.3-11.6-3.2-0.6-1.1 0.8-1.4 2.6-1.4q-3.1-0.5-6.2-1.1c-3.9-0.6-7.8-1.4-11.3-3.1-1.2-0.6-2.2-1.3-3.2-2-3.2 3.3-7.2 0.3-9.3-1.8q-0.1 0.4-0.1 0.8c0.1 1.1 0.8 1.8 1.6 2.3-1 0.2-1.9 0.6-2.7 1.1 4.6-0.8 13.4-1.8 12.1 3.2-0.8 3.3-3.7 5-6.5 6q1.8-0.4 3.3-1.3-0.1 0.9-0.1 1.9c0.9-2.7 3.6-4.4 9.9-2 6.7 2.5 9 5.6 9.4 8.2 0.1-0.9 0-1.8-0.3-2.6q0.8 0.5 1.6 0.8c-3.3-2.9-11.9-10.6-5-8.5 5.3 1.7 7.4 5.6 8.2 8.1 0.6-0.4 0.9-1.1 0.9-1.9 0.9 0.4 1.8 0.7 2.6 0.6-3.1-1.2-7.5-3.3-2.5-3.7 2.7-0.2 4.4 0.5 5.6 1.5 0.1-0.5 0.2-1 0-1.5z"/>
				<path id="&lt;Path&gt;" class="s3" d="m1491.7 110.3c-0.2 0.4-0.5 0.6-0.9 0.5-1.9-0.1-2.9-7.2-3.4-10.5q-0.3 1.5 0 2.9c-0.3-0.2-0.6-0.3-0.9-0.4 0.9 1.1 1.9 3.1 0.6 5.5-1.3 2.5-3 1.5-4.1 0.5q0 0.1 0.1 0.3-0.2 0-0.4 0.1-0.3 0.3-0.5 0.6c1.5 0 6 0.1 6.4 2.3 0.4 2.4-3.2 4-5.9 3q0.3 0.4 0.6 0.8-0.6 0.3-1.1 0.8c2.3-1.1 5.9-2.1 7.7 0.7 1.8 3 1 8.5 0.2 11.6 0.5-0.4 1-0.9 1.3-1.5 0.3 0.6 0.7 1.2 1.3 1.5-0.9-1.9-1.9-4.8-1-7.7 0.7-2.2 1.6-2.5 2.4-2.1q0-0.3-0.1-0.6c-0.9-2.7-1.8-5.5-2.3-8.3z"/>
				<path id="&lt;Path&gt;" class="s3" d="m1499.3 117.5c2.7-1.5 7.9-3.8 10.6-1.1 3.1 3.1 2.6 10.1 0.3 13.3q0.3 0 0.5-0.1c-0.1 1.4 0.4 2.7 1.1 3.9-0.7-2.8-0.9-6.8 1.8-10.8 4.8-6.9 19.3 4.1 20.1 19q0.3-0.3 0.6-0.7c0.7 0.6 1.5 1.2 2.3 1.7-1.1-1.8-2.5-4.9-1.5-8.5 1.2-4.5 5.8 2.3 7.3 6.5q0.1-0.3 0.1-0.5c0.5 0.3 1.1 0.5 1.7 0.7-1.3-1.1-2.6-2.9-2.3-5.9q-0.4-0.2-0.8-0.4c-4.8-2.9-9.1-7-12.6-11.5-0.3 0.5-0.7 0.7-1.4 0.6-1.7-0.3-4.6-3-6.7-5.2q0.5 0.8 1.3 1.4c-0.9-0.1-1.7-0.5-2.4-1q-1.1-0.6-2.1-1.4c-0.6 1.5-1.7 3.2-3.8 1.6-2.8-2.1-8.8-15.3-11-20.3q0.3 2.6 0.5 5.1-0.9-0.3-2-0.3c2.7 0.8 6.5 2.9 4.9 7.9-1.5 4.9-4.8 5-7 4.4q0.4 0.4 0.8 0.6-0.2 0.5-0.3 1z"/>
				<path id="&lt;Path&gt;" class="s3" d="m1502.7 74.1c-1.8 0-3-0.6-2-2.2 1.7-2.8 3.4-3.8 4.4-4.2q-0.1 0-0.2-0.1 0.5-0.4 0.9-0.9c-3.5 2.5-9.8 6.7-10.8 5.4-1.2-1.5 0.9-6.7 2.8-9.5q-0.4 0.3-0.8 0.7-0.5-0.2-1.1-0.3c0.3 1 0.1 2.7-1.9 5.4-2.3 3-4.2 2.6-5.4 1.6q0 0.5 0.1 0.9-0.4 0.2-0.8 0.5c1.4-0.1 3 0.3 2.7 2.7-0.4 2.8-2.6 4.1-4 4.6q0.3 0.2 0.6 0.2-0.4 1.4-0.8 2.8c1.5-2 4-4.6 6.5-3.4 1.6 0.8 2.2 1.7 2.4 2.5q0.3-0.5 0.7-0.9c1.8-2.4 4.3-4.1 6.7-5.8z"/>
			</g>
		</g>
		<g id="&lt;Group&gt;">
			<path id="&lt;Path&gt;" class="s4" d="m1299.7 55.6c0 0 37.1-12.1 15.1 2.6 0 0 53-9.1 10.1 8.6 0 0 71.4-15.3 40.4 0 0 0 20.8-5.2 8.5 1.8-12.3 7.1-4 12.4 5 12.1 0 0-10.7 2.8-12.5 8.6-1.9 5.8 3.7 8.2 3.7 8.2 0 0-1.9 1.3-0.6 3.6 1.3 2.3 3.1 3 3.1 3 0 0-6.4 0.7-8.5 4.4-2.1 3.6 5.1 4.1 5.1 4.1 0 0-8.8 3.2-6.8 5.3 2 2.2 51-13.8-24.6 24.6 0 0 63-15.6 43.2-14.8 0 0 24.9-9.9 12.3-13.3 0 0 7.4-3.7 6.3-7.6-1.2-4-7.6-1.2-7.6-1.2 0 0 3.2-4.4-1.4-5.1-4.5-0.7-7.5 0-7.5 0 0 0 35.3-13.9 23.7-14.3 0 0 7.1-7.6 6.6-15.2-0.4-7.6-24.9-8.9-28.9-7.8 0 0 1.9-2.7-2.2-5-4.1-2.3-18.2 0-18.2 0 0 0 5.3-2.3 3.3-4.9-2-2.5-11.8 0.3-11.8 0.3 0 0 0.6-3.2-4.5-5.4-5.1-2.1-19.2 2.9-19.2 2.9 0 0 6.7-4.3 5-5.9-1.7-1.5-30.2 7-37.1 10.4z"/>
			<path id="&lt;Path&gt;" class="s5" d="m1327.1 143.6c0 0-44.4 24-56.3 21.4-11.8-2.5 7-12.6 7-12.6 0 0-13.5 6.2-17.3 2 0 0-27.2 1.5-20-3.5 7.3-5 15.3-6.1 15.3-6.1 0 0-21.5 5.9-21.5 1.5 0-4.4 8.4-8.2 8.4-8.2 0 0-15.4 2.7-16.2-6-0.9-8.6 8.1-15.8 8.1-15.8 0 0-8.5 1.4-8.2-3.3 0.4-4.7 5.2-7.2 5.2-7.2 0 0-5.4-1.7-2.7-10.4 2.7-8.6 23.2-13 23.2-13 0 0-38.6 29.6-2.6 20.3 0 0-22.3 14.6-0.8 9.3 0 0-34 29.5 20.5 7.8 0 0-27.4 21.3 11.9 15.2 39.2-6.1 13.3 8.5 13.3 8.5 0 0 6.6-4 10.9-2 4.3 2 3 3.7 3 3.7 0 0 3.8-2.7 7.3-1.2 3.6 1.6 11.5-0.4 11.5-0.4z"/>
			<path id="&lt;Path&gt;" class="s6" d="m1279.7 48.1c0 0-3-6.5 2-8.9 5-2.4 17.7 7.4 17.7 7.4 0 0-1.7-5 1.6-5.6 3.2-0.5 5.9 6.3 5.9 6.3 0 0 2.4-3.7 7.1-1.9 4.7 1.9 9.7 17.4 9.7 17.4 0 0-5.6-10.9-20.7-6.2 0 0 4.4 4.3-0.7 7.2-5.1 2.9-11.6 0-11.6 0 0 0 2.5 3.6-1.2 4.1-3.7 0.4-5.8-1.6-5.8-1.6 0 0-0.3 2.4-3 1.6 0 0 2.4 8.7-10 5.2-12.4-3.5-7.5-8.7-7.5-8.7 0 0-5.4-1.4-3.4-8 2-6.7 11.7-10.2 19.9-8.3z"/>
			<path id="&lt;Path&gt;" class="s6" d="m1317.8 37.9c0 0-6.3 1.4-9-2.5-2.6-4 3.3-2.7 3.3-2.7 0 0-3.5-5.4 0.1-6.5 3.7-1.2 9.8 4 10.3 6 0 0 3.7-1.2 6.9 1.4 3.2 2.6 0.8 5.2 0.8 5.2 0 0 5.1-0.5 5.1 3.4 0 3.9-3.3 5.9-9.2 0 0 0-0.3 3.2-4.4 2.2-4.1-1.1-3.9-6.5-3.9-6.5z"/>
			<path id="&lt;Path&gt;" class="s6" d="m1352 87.9c0 0-12.3-2.7-16.7-15.2-4.4-12.5 3.6-15.9 15.8-13 12.2 2.8 11.2 10.7 11.2 10.7 0 0 5.7-1.2 8.9 2.9 3.2 4.1 1.4 7.5 1.4 7.5 0 0 4.1-0.5 6 2 1.9 2.6 0 6.5 0 6.5 0 0 6.4 1.3 7.7 8.1 1.4 6.8-3.6 5.6-3.6 5.6 0 0 1.6 3.9-0.9 4.3-2.4 0.4-4.5-2.9-4.5-2.9 0 0-2.1 2.6-5 1.8-3-0.7-1-3.3-1-3.3 0 0-9.9 6.8-15.8 0.7-5.8-6.1 2.3-7.6 2.3-7.6 0 0-19.9 2.7-19.5-3.7 0.5-6.5 13.7-4.4 13.7-4.4z"/>
			<path id="&lt;Path&gt;" class="s6" d="m1309.8 74.7c0 0 1.1-5.8 7.6-4.2 6.5 1.6 10.5 9.8 9.2 15.6 0 0 4.9 0.7 4.5 4.8-0.4 4.2-7.4 5.7-11.9 4.8-4.6-1-6.1-4.4-6.1-4.4 0 0-0.8 12.8-11.7 7.9-10.9-5-4.6-12.3-4.6-12.3 0 0-5.7-3-2.7-9 3.1-6.1 15.7-3.2 15.7-3.2z"/>
			<path id="&lt;Path&gt;" class="s6" d="m1249 73.2c0 0 7.4-0.4 4.3-4.9-3.1-4.6-5.1 0.4-5.1 0.4 0 0-8.9-1.2-9.2 2.3-0.2 3.5 2.4 3.7 5 2.9 0 0-0.9 2.2 1.5 2.6 2.3 0.4 3.5-3.3 3.5-3.3z"/>
			<path id="&lt;Path&gt;" class="s6" d="m1267.5 98c0 0-2.4-11.3-11.7-11.5-9.4-0.1-14.1 8.1-13.1 12.9 0 0-8.2 3.2-6.6 10.9 1.5 7.8 10.4 8.4 10.4 8.4 0 0-3.6 2 0 6.1 3.7 4.1 14.1 4.3 14.1 4.3 0 0-4.1 2.7 1.1 7.9 5.3 5.2 20 0 20 0 0 0 2.7 9.2 14.9 1.4 0 0-10.4 3.6-10.6-5.4 0 0 5.3-2.7 3.9-6.8-1.4-4.1-10.5-3.1-10.5-3.1 0 0 1.6-5.8-1.7-8.1-3.2-2.2-5.1-1-5.1-1 0 0 5.6-9.2 2.2-13.7-3.4-4.5-7.3-2.3-7.3-2.3z"/>
			<path id="&lt;Path&gt;" class="s6" d="m1309.1 112.3c0 0-0.2-2.2 1.2-2.7 1.4-0.4 1.9 1.4 1.9 1.4 0 0 1.1-4.9 5.6-5.3 4.6-0.5 6.3 8.8-4.4 10.5 0 0 0.8 8.5-4.3 8.9-5.1 0.4-4.4-6.5-4.4-6.5 0 0-2.2 4.1-6.1 3.2-4-0.8-4.3-4.5-2.9-6.4 0 0-2.5-1.5-0.7-4.8 1.7-3.2 11.8-2.9 14.1 1.7z"/>
			<path id="&lt;Path&gt;" class="s6" d="m1331.1 125.1c0 0-3.3-5.7 4.5-9.7 7.8-4.1 17.3 8.4 17.3 8.4 0 0 0.5-6.1 5.5-2.7 0 0-0.2-7.8 4.9-9.5 5.1-1.7 10.5 14.3 2.6 20.2 0 0 6.4 7.6-1.6 6.5 0 0 1.7 8.5-2.1 10.9-3.8 2.4-6.8 0.8-6.8 0.8 0 0-4.1 10.8-16.9 9.5-12.7-1.2-17.1-4.9-17.1-4.9 0 0-4 5.2-12.6 4.4-8.7-0.9-3.7-4-1.7-3.7 0 0-5.8-1.2-4-6 1.8-4.8 7.2-0.1 7.2-0.1 0 0-5.4-4.4-1-11.6 4.4-7.3 9.7-4.6 9.7-4.6 0 0-1.3-3.7 3.7-6.6 4.9-3 8.4-1.3 8.4-1.3z"/>
			<path id="&lt;Path&gt;" class="s6" d="m1245.9 81.9c0 0-12.1-5.1-22.5 1.9-10.3 7.1 3.5 8.4 3.5 8.4 0 0-4.6 0.3-3.7 2 0.8 1.7 2.7 1.1 2.7 1.1 0 0-9.1 4.3-8.1 6.8 0.9 2.4 10.7 1.1 10.7 1.1 0 0-10.2 3.6-8.7 7.1 1.5 3.5 9.5 1.7 9.5 1.7 0 0-14.6 0.6 4.4-8.6 0 0-16.6-4.3-1.7-7.1 15-2.8 2.6-5.3 2.6-5.3 0 0 3.5-0.9 1.9-2.8-1.6-1.9-6.2-9.1 9.4-6.3z"/>
			<path id="&lt;Path&gt;" class="s7" d="m1263.2 64.4c0 0-1.4 1.5-0.8 3.4 1.1-1.7 3.6-3.5 9.8-2 5.2 1.3 7.6 2.7 8.7 3.8 0-0.9-0.2-1.7-0.2-1.7 0.6 0.2 1 0.2 1.4 0.1-1.2-0.8-3.3-2.6-2-4.2 1.2-1.6 2.7 1.4 3.4 3.1 0.2-0.3 0.2-0.6 0.2-0.6 0 0 0.6 0.6 1.8 1.1-1.5-1.7-3.5-4.8-0.5-7.6 3.1-2.9 5.6 3.3 6.4 6.9 0.5-1.2-0.7-2.9-0.7-2.9 0 0 1.3 0.6 3.2 1-2.5-1.4-5.3-4-5.7-8.4-0.6-7.1 11-3.3 16 2-0.5-1.1-1.2-1.8-1.2-1.8q0.6-0.2 1.2-0.3c-2.6-0.8-4.7-2.1-3.7-4.3 2.2-5.1 7.6 0.3 7.6 0.3 0 0-1.7-3.6 1.4-7-1.7 0.7-2.6 2-2.6 2 0 0-0.3-0.8-0.8-1.8 0.1 1.4-0.5 2.7-2.6 3.5-3.4 1.3-4.3-2.2-4.5-5.7-0.2 1.5 0.4 3.3 0.4 3.3 0 0-0.5-0.4-1.4-1 1.2 2.9 1.7 6.2-1 6.9-4 1-11-5.2-14-8.1 1.6 1.7 3.5 4.3 1.7 5.1-2.3 1-4.5-0.5-5.7-4 0.2 1.5 0.7 2.6 0.7 2.6q-1.3-0.3-2.6-0.4c3.3 1.1 6.8 3.6 7.4 9 0.9 9.1-17.7 9.9-23.8 6.1 1.1 1.2 2.5 1.6 2.5 1.6z"/>
			<path id="&lt;Path&gt;" class="s7" d="m1318.5 34c-1.4 0.3-2.6 0.1-3.6-0.3 1.7 0.6 3 1.5 3.5 2 0.6 0.8-0.5 1.7-1.6 2.4 0.7-0.1 1-0.2 1-0.2 0 0 0 0.3 0.1 0.8 0.5-1.3 1.8-2.5 5-0.4 2.4 1.5 3 3.2 3 4.6 0.1-0.4 0.2-0.7 0.2-0.7q0.6 0.6 1.1 1.1c-0.2-0.6-0.3-1.3-0.3-2.1 0.1-1.7 2.3-2.2 4.3-2.4-0.6 0-1 0-1 0 0 0 0.8-0.9 0.8-2.1-1.9 3.8-7 2.7-9-1-1-2 0.4-3.2 2.1-3.8-0.9 0.1-1.6 0.3-1.6 0.3-0.1-0.5-0.5-1.1-1.1-1.7 0.5 1.2 0.4 2.9-2.9 3.5z"/>
			<path id="&lt;Path&gt;" class="s7" d="m1114.5 17.5c1.7 0 3.6 0.5 5.2 1.1-1.5-0.7-2.7-1.8-3.6-2.8 0.5 1.1 1 1.9 1 1.9 0 0-1.4-0.3-2.6-0.2z"/>
			<path id="&lt;Path&gt;" class="s7" d="m1379.2 100.3c2.7-5.5 3.5 3.7 3.7 6.3 0.8-1.2-0.2-3.6-0.2-3.6 0 0 1.2 0.3 2.2-0.2-1.6-0.6-3.1-2.5-2.6-7.9 0 0-2.5 6.2-6.2 3.8-3.1-2-0.1-8.5 4.6-8.6-1.2-0.6-2.1-0.8-2.1-0.8 0 0 0.4-0.7 0.6-1.8-3 3.5-8.3 8.3-12.9 6.3-5.4-2.4 1.2-9.6 7.2-13-0.6 0-0.9 0-0.9 0 0 0 0.6-1.2 0.5-3-3.2 4.6-7.9 9.6-13.6 10.2-10.6 0.9 9.7-7.1 9.7-7.1 0 0-9-0.4-4.3-10.6-1.2-0.1-2.1 0.1-2.4 0.1 0.9 4.2 0.4 9.1-4.3 13.7-3 3.1-6.5 3.5-10 2.4 2.3 1.1 3.8 1.4 3.8 1.4 0 0-5.3-0.8-9.3 0.2 5.4-0.4 13-0.2 17.6 3.3 4.4 3.3-2.2 4.6-8.7 5.1 2.6-0.1 4.8-0.3 5.7-0.4 2.6-1.1 6.6-1.4 12.6 0.2 9.5 2.5 1.7 6.5-7.9 9.9 4.8-0.2 9.3-3.3 9.3-3.3 0 0-2 2.6 1 3.3q0.5 0.2 0.9 0.2c-0.7-2.1-0.8-4.7 2.6-6.1 6.2-2.7-0.9 5.8-0.9 5.8 1.4-0.5 2.4-1.7 2.4-1.7 0 0 0.9 1.5 2.3 2.4-1.1-1.5-1.8-3.6-0.4-6.5z"/>
			<path id="&lt;Path&gt;" class="s7" d="m1326.8 84.1c-2.6 4-10.1 6.9-14.6-1.7-3.6-6.8-0.6-10.4 1.9-12.1-3.6 0.7-4.3 4.4-4.3 4.4 0 0-0.4-0.1-1.1-0.2 0.6 0.8 0.7 2 0.1 3.5-2.5 6.5-10.8 6.4-14.9 5.9 1 2 2.9 3 2.9 3 0 0-1.3 1.5-1.7 3.5 3.9-3.9 12.8-11.7 16.4-3.9 3 6.6-1.4 11.2-5 13.8 6.1-0.5 6.6-9 6.6-9 0 0 0.4 0.8 1.3 1.8q0.5-0.6 1.3-1.2c6.2-4.5 11.3-4.7 14-4.4-1.3-1.1-3.1-1.4-3.1-1.4q0.2-1 0.2-2z"/>
			<path id="&lt;Path&gt;" class="s7" d="m1244 75.5c0.4-1.5 1.4-3.3 3.8-3.6 2.1-0.3 1 1.8-0.5 4 1.1-1 1.7-2.7 1.7-2.7 0 0 1-0.1 2.2-0.4-1.5-0.4-2.6-1.1-2.5-2.3 0.2-1.7 0.5-2.9 0.8-3.7-0.8 0.7-1.3 1.9-1.3 1.9 0 0-1-0.1-2.4-0.2 1.7 0.6 4 2.2-3.5 5.8q0.8-0.1 1.7-0.4c0 0-0.3 0.8 0 1.6z"/>
			<path id="&lt;Path&gt;" class="s7" d="m1288.5 131.1c-1.2-0.2-2.2-0.9-2.5-2.5 0 0-8.8 1.1-8-2.6 0.3-1.6 1.7-2.5 3.1-3-1 0-1.7 0.1-1.7 0.1 0 0 0.2-0.5 0.3-1.2-1.6 1.9-4.2 3.6-8.4 1.9-5.1-2-0.2-6.8 4-10-1.7-0.4-2.7 0.2-2.7 0.2 0 0 0.2-0.2 0.4-0.6-2.4 1.8-5.3 3.1-7.9 1.2-5.3-3.8 6.3-6.8 8-7.2-1 0.2-5.2 0.4-5.1-9.6-0.3 0.1-0.5 0.2-0.5 0.2 0 0-0.7-3.3-2.8-6.3 2.1 5.3 5.4 16.9-2.6 20.8-9.3 4.4-17.5-11.4-19.4-15.3q-0.2 1.2 0 2.2c0 0-0.8 0.4-1.9 1.1 2.7 2.2 10.5 8.9 10.5 14.9 0 3.5-4.3 3.4-8.7 2.4 2.1 0.8 3.9 0.9 3.9 0.9 0 0-0.6 0.4-1.1 1.1 3.1-1.4 7.9-2.4 15.4-2.3 14.6 0.3 6.8 6.6-1.6 11.5 0.9 0 1.4 0.1 1.4 0.1 0 0-1.2 0.8-1.5 2.4 2-3.3 6.1-7.6 12.6-6.4 9.1 1.6 9.4 9.8 8 12.5 1.2-0.3 2-0.6 2-0.6 0 0 0.1 0.2 0.2 0.5-0.5-3.1-0.6-6.6 1.5-7.5 3.8-1.8 1.3 5.1 1.3 5.1 0 0 0.4-1.1 1.3-1.4q0-0.3 0-0.7c0 0 1.3-0.7 2.5-1.9z"/>
			<path id="&lt;Path&gt;" class="s7" d="m1303.8 118.4c0.3 0.4-0.3 1.4-1 2.4 1.2-1 1.9-2.2 1.9-2.2 0 0-0.1 0.6-0.1 1.5 0.6-1.5 1.7-3.3 4.1-3.8 2.6-0.7 3.9 1.7 4.6 3.7 0.3-2 0.1-3.8 0.1-3.8q0.6-0.1 1.1-0.3c-0.5-0.1-1-0.4-1.5-0.8-1.5-1.4-0.4-4.8 0.3-6.6-0.8 1.3-1.1 2.5-1.1 2.5 0 0-0.2-0.8-0.7-1.2 0.2 2.5 0.5 6.6-1.1 5.3-1.4-1.1-1.1-3.4-0.7-5-0.7 0.7-0.6 2.2-0.6 2.2q-0.5-0.8-1.1-1.4c0.2 0.8 0.1 2.1-0.9 4.2-1.9 3.6-9.7 0.5-12.3-0.7 0.4 0.7 0.9 1 0.9 1q-0.4 0.5-0.6 1.3c3.5-1 8.1 1.1 8.7 1.7z"/>
			<path id="&lt;Path&gt;" class="s7" d="m1365.9 131.8q0.6-0.5 1.1-1.1c-1.3 0.2-2.5 0.3-3.2 0.2-2.1-0.2-4.3-7.8-5.3-11.9-0.1 1.2-0.1 2.1-0.1 2.1-0.5-0.3-0.9-0.5-1.3-0.7 0.3 0.5 6.3 10.7 1.7 9.2-3.1-1-4.5-5.5-5-8.4-0.8 1.1-0.9 2.6-0.9 2.6 0 0-1.4-1.7-3.4-3.7 6.8 7.5 15.4 19 1.9 17.7-14-1.3-19.2-10.5-21-15.6 0 1.7 0.7 2.9 0.7 2.9 0 0-0.4-0.2-1-0.3 4.6 7.6 2.2 17.2-3 15.9-4.7-1.2-6.1-9.8-6.5-12.8-2.5 2.6-1.6 5.1-1.6 5.1 0 0-0.7-0.3-1.8-0.4 3.8 4.8 9.5 13.7 2.1 16.6-6.6 2.6-10-1.7-11.6-5.3 0.3 3.2 2.4 5.1 2.6 5.3-0.1-0.1-1.4-1.2-2.9-1.8 2.3 1.5 4.3 3.5 3.1 5.3-1.6 2.4-5.2 0.5-7.7-1.1 0.4 2.9 4.3 3.7 4.3 3.7-1.2-0.2-3.4 0.8-3.2 1.8 3.8-1.8 16.1-7.4 17.5-4.4 0.3 0.6 0.3 1.3 0.1 2q0.2 0.1 0.7 0.4c0.8-8.4 15.4-27.5 26.8-15 3.8 4.1 5.5 7.7 6.1 10.7 0.2-0.5 0.3-0.8 0.3-0.8 0 0 0.4 0.2 1.1 0.4-3.3-3.8-3.7-12 2.3-12.6 3.1-0.3 4.9 1.5 5.9 3.6-0.1-1.8-0.4-3.1-0.4-3.1q0.5 0 0.9 0.1c-2.1-2.2-6.5-6.9-3.1-6.8 2.4 0.1 4.6 3.2 6 5.9 1.1-1.8-2.2-5.7-2.2-5.7z"/>
			<path id="&lt;Path&gt;" class="s8" d="m1263.6 144.5c21.3 22 59.2 19.9 84.5-4.7 25.4-24.6 28.6-62.4 7.3-84.4-21.3-21.9-59.2-19.8-84.5 4.8-25.4 24.6-28.6 62.3-7.3 84.3z"/>
		</g>
		<g id="&lt;Group&gt;">
			<path id="&lt;Path&gt;" class="s9" d="m1123.3 62.2c0 0 57.2-20.8 53.4-11.6-3.8 9.1-48 27.9-48 27.9 0 0 88.8-28.8 56.5-25.8 0 0 34.2-19.8 10.9-13.6 0 0 10.5-11.4-72.8 23.1z"/>
			<path id="&lt;Path&gt;" class="s10" d="m1048.9 94.9c0 0-106 39.7-53.1 28.8 0 0-30.1 24.2 37.8-0.7 0 0-74.1 33.1-65.9 20.5 0 0-54.6 13.9 6.2-14.6 0 0-23.3-4.2 75-34z"/>
			<path id="&lt;Path&gt;" class="s11" d="m999.3 86.2l29.8-3.4c0 0-12.1-11.7 3.3-12 0 0-8.4-22.3 18.5-14.6 0 0-11.2-24.9 7.7-10.8l-17.9-34c0 0 22.4 60.6-16.3 21.7 0 0 24.3 43.6-14.8 22.7 0 0 38.4 20.8 2.6 16 0 0 32.8 7.5-12.9 14.4z"/>
			<path id="&lt;Path&gt;" class="s12" d="m1100.7 19.8l-1.8 15.9c0 0 22.7-19.9 9.1 7.7 0 0 34.3-36 9.1 0.5 0 0 35-20.4 6.8 8.6l41.1-31.3c0 0-62.7 40.5-27.8-11.2 0 0-30.9 39-20.5 5.5 0 0-19.2 32.3-16 4.3z"/>
			<path id="&lt;Path&gt;" class="s13" d="m1136 101.1l48.2-8.7c0 0-72.7 20.3-18.8 26.9 0 0-55.8-1.3-23 11.5 0 0-47.3-8.6-10.5 28.4l-24.8-23.7c0 0 31.7-6.4 18.4-13.8 0 0 31-7.1 13.7-11.9 0 0 24-7-3.2-8.7z"/>
			<path id="&lt;Path&gt;" class="s14" d="m1073.2 152.4l-12.7 49.4c0 0 15.6-63.7-17.9-21.3 0 0 23.2-46.6-6.7-15.9 0 0 27.3-35-9.9-11.4 0 0 25.1-17.6-7.5-8.7l22-10.6c0 0-8.1 17.4 9 7.5 0 0-11.1 23.8 11.6 3.6 0 0-7.4 39.5 12.1 7.4z"/>
			<path id="&lt;Path&gt;" class="s15" d="m1052.1 50.8c0 0-2.3-10.8 7.7-13.3 9.9-2.6 11.4 10 11.4 10 0 0 3.4-2.8 7-0.5 3.5 2.2 5.5 8 6.5 13.7 0 0 1.4-5.8 5.4-1.8 0 0 1.4-6.5 7.1-4 0 0 7.6-9.5 14.1-7.8 6.6 1.7 4.3 12.9 4.3 12.9 0 0 2-1 3.3 0.7 1.2 1.7 0 5.5-3.6 7.8 0 0 18-4.8 23 6 4.9 10.7-10.1 17-10.1 17 0 0 5.4 2.1 3.3 4.9-2.2 2.9-10-1.1-10-1.1 0 0 9.4 10.8 1.5 19.3-8 8.5-15.2 1.5-15.2 1.5 0 0 0.1 4-3.8 3.6-4-0.5-3.9-5.3-3.9-5.3 0 0-0.7 1.6-3.1 1-2.4-0.5-3.9-4.7-3.9-4.7 0 0 3.4 11.9-0.9 11.8 0 0 1.1 9.4-4.4 11.3-5.5 2-7.6-3.4-7.6-3.4 0 0-10.2 12.1-24 3.9-13.7-8.2-0.7-17.7-0.7-17.7 0 0-1.8-0.6-0.4-4 0 0-12.6 11.9-20.6-0.3-7.9-12.2 3.9-16.9 3.9-16.9 0 0-4.4-1.7-2.9-6.6 1.6-5 9.1-6.1 9.1-6.1 0 0-2-1-1-3 0 0-7.9-5-5.4-12 2.6-7.1 6.1-5.9 6.1-5.9 0 0-3.4-6.6-0.6-9.3 2.9-2.7 8.4-1.7 8.4-1.7z"/>
			<path id="&lt;Path&gt;" class="s16" d="m1131.5 96.4c2-2.8-3.3-4.9-3.3-4.9 0 0 1.3-0.6 3-1.6-13.7 3.4-35.8 2.6-29.4-7.1 7-10.5 18.5-14.3 23-15.4-5.1-0.1-9.5 1.1-9.5 1.1 2-1.2 3.2-3 3.8-4.5-2.6 4-10.3 9.3-10.3 9.3l-3.4 2.6c5.1-11.1 9.2-15.1 12.3-16-1.1-0.4-2.1 0.1-2.1 0.1 0 0 0.6-2.9 0.3-5.9-4.4 12-19.2 33.6-20.5 18.6-0.9-10.2 2.7-17.5 6-22-2.5 2-4.2 4.2-4.2 4.2q-0.7-0.3-1.3-0.4c2.1 5.1-4.3 18.1-5.2 12.3-0.8-4.6 0.6-9.2 1.5-11.6-1.6 1.4-2.1 3.7-2.1 3.7q-0.6-0.6-1-0.9c0.7 2.9-1.1 9.2-1.1 9.2l-1.3 8.6c-2.2-9.3-1.8-14.6-0.6-17.7-1 0.9-1.4 2.6-1.4 2.6-0.4-2.2-1-4.5-1.7-6.6 1.6 16.3-5.3 41.2-9.5 12.8-1.9-12.5-0.6-18.3 1.8-20.8-2.3 0-4.1 1.4-4.1 1.4 0 0-0.3-3-1.9-5.8 2.7 10 5.9 36.5-5.9 23.6-12.9-14.1-11-21-10.6-22.1-1.5 3.7-0.7 7.6-0.7 7.6 0 0-1-0.2-2.3-0.2 5 3.3 15.9 16.8 7.2 16.1-6.2-0.6-11.4-6.1-14.3-9.7 0.4 2.5 1.6 4.8 1.6 4.8 0 0-0.8-0.2-1.9 0.2 6 1.7 23.6 11.9 11 14.6-8.6 1.8-13.2-1.7-15.6-4.8 0.9 4.8 5.8 7.9 5.8 7.9q0 0.1 0 0.1c2.8-0.5 6.7-0.9 7.5 0.9 0.5 1.4-3.2 1.5-7.4 1.2 0.4 0.5 0.9 0.8 0.9 0.8 0 0-1.8 0.3-3.8 1.1 11.4-0.9 29.9 0.3 13.7 6.6-9.3 3.5-15.3 2.9-19.3 1 0.4 3 3.2 4 3.2 4 0 0-4.4 1.8-6 5.8 10.1-8.2 37.5-14 31.7 0.3-5 12.4-20.9 13.4-27.6 13.2 7.9 8 18.6-2.1 18.6-2.1q-0.3 0.7-0.4 1.2c2.3-2 6-4.9 6-1.9 0 2.5-2.9 3.8-5.5 4.5 0.2 0.1 0.3 0.2 0.3 0.2 0 0-5.5 4-5.6 9.1 3.4-11.6 13.5-6.6 13.5-6.6l13.5-14.5-0.2 16.1c2.2 5.9 1.6 9.9 0.1 12.7 2.1-1.5 3.4-3 3.4-3 0 0 0.9 2.4 3.2 3.4-6.6-12.5-10-41.9 0.9-25.7 8.6 12.6 5.8 21.6 3.5 25.8q1-0.4 1.8-1.1v-0.1c3.5-3.1 2.6-10.2 2.6-10.2q0.2 0 0.3 0c-3.4-8.1-9-22.2-3.5-16.4 3.6 3.7 4.9 7.9 5.3 11.4-0.2-3.2-1.2-6.8-1.2-6.8 0 0 0.8 2.3 2.2 3.7-2-6 0-17.4 3.3-8.3 1.6 4.2 1.6 7 1.1 8.8 0.3-0.2 0.4-0.5 0.4-0.5 0 0 0 2.8 1.6 4.3-1.5-4.3-0.8-11.1-0.8-11.1 5.4 4.8 6.4 8.6 6.1 11.1 0.8-1.1 0.8-2.6 0.8-2.6 0 0 4.4 4.3 10.1 2.1-11.7-0.2-19.3-18.7-19.3-18.7l5.7-4.2c10.7-2.4 16.9 1.3 20.4 5.2-1.3-3.1-3.2-5.2-3.2-5.2 0 0 2.7 1.3 5.3 1.9-4.8-1.8-10.8-5-10.8-5 8.4-1.7 13.3 1.8 15.5 4.2z"/>
			<path id="&lt;Path&gt;" class="s17" d="m1058.6 73.3c0 0-8.5-20 7-2.1 0 0-11.2-27.2 7.1 4 0 0-7.8-35.7 3.6-1.9 0 0 7.3-31.7 6.4 4.6 0 0 4.5-16.2 8.9-14.4 4.4 1.9-4.1 16.1-4.1 16.1 0 0 14.9-24.7 21.4-20 6.6 4.7-11.6 20-11.6 20 0 0 27.3-18.5 3.6 2.2 0 0 55.7-5.9 3.5 7.3 0 0 32.7 0.2 1 5.1 0 0 10.8 4.6 8.8 9.7-2 5.1-13.3-4.2-13.3-4.2 0 0 16.3 20.1-5 4.9 0 0 0.8 9.7-6.7-1.1 0 0 7.4 32.3-3.7 2.6 0 0 0 31.6-4.2 3.5 0 0-7.2 41-5 3 0 0-1.1 17-10.5 10.2-9.3-6.8 4.6-14.2 4.6-14.2 0 0-21.2 12.1-8.6-0.3 0 0-15 8.3 0-6.8 0 0-27.6 13.5-4.2-4.5 0 0-28.6 10.2 0.6-3.3 0 0-28.6 8-4.5-1.9 0 0-10.7 2.2-9.7-2.9 1-5.1 14.8-3.1 14.8-3.1 0 0-23.4-8.6-4.1-5.7 0 0-10.5-3.2-6.4-8.9 4.1-5.8 10.3 2.1 10.3 2.1z"/>
			<g id="&lt;Group&gt;">
				<path id="&lt;Path&gt;" class="s6" d="m1094.8 120.4c0 0-3.4-5.8-8.4-2-5.1 3.8-0.9 7.1-0.9 7.1 0 0-5.2 6.7-2.2 12.3 3 5.6 9.4-8.1 9.4-8.1 0 0 2.1 12.2 6.6 9.2 4.5-3 1.8-9.4 1.8-9.4 0 0 2.5 4.6 3.8 3.3 1.2-1.3-0.3-3.9-0.3-3.9 0 0 5.3 7.4 9.1 3.4 3.8-4.1-0.3-7.6-0.3-7.6 0 0 13.2 2.8 19.1-10.7 6-13.5-15-15.4-19.3-4.3 0 0-6-3-9.8 1.2-3.6 3.9 0 7.4 0 7.4 0 0-7.7-7-8.6 2.1z"/>
				<path id="&lt;Path&gt;" class="s18" d="m1113 112.4c0 0-5.3 8.8-0.7 11.2 0 0-9.5-3.8-8.1 4.2 0 0-3.7-3.9-3.3 0.8 0 0-5.9-5.6-8-0.1 0 0 0.1-3.3-3.2-3.9 0 0 4.6 1 5.1-2.9 0 0 8.2 9.8 9-2.7 0 0 2.9 3.7 9.2-6.6z"/>
				<path id="&lt;Path&gt;" class="s19" d="m1109.2 115.7c0-0.5-0.7-1.6-2.2 0.2-1.5 1.7-1.9 2.8-0.9 2.6 1.1-0.2 3.2-1.4 3.1-2.8z"/>
				<path id="&lt;Path&gt;" class="s19" d="m1110 125c0.5-0.3 0.9-1.5-1.4-1.7-2.3-0.2-3.4 0.1-2.6 0.9 0.7 0.7 3 1.7 4 0.8z"/>
				<path id="&lt;Path&gt;" class="s19" d="m1101.8 126.7c-0.2-0.1-0.8 0.1-0.1 0.8 0.7 0.6 1.1 0.8 1.1 0.5 0-0.4-0.3-1.3-1-1.3z"/>
				<path id="&lt;Path&gt;" class="s19" d="m1090.1 123c-0.3 0.1-0.7 0.4 0.1 0.8 0.8 0.5 1.3 0.6 1.2 0.2-0.1-0.4-0.7-1.1-1.3-1z"/>
				<path id="&lt;Path&gt;" class="s19" d="m1096 127.1c-1.2 0.1-2 0.2-1.4 1.3 0.6 1.2 4.9 1.7 5.5 0.9 0.5-0.7-2.2-2.5-4.1-2.2z"/>
				<path id="&lt;Path&gt;" class="s19" d="m1103.1 121c0.1-1.1 0.1-2-1.1-1.6-1.3 0.4-2.6 4.5-1.9 5.2 0.7 0.7 2.9-1.7 3-3.6z"/>
				<path id="&lt;Path&gt;" class="s19" d="m1094.2 122.3c0.1-0.6-0.6-1.4-1.3-1.2-0.7 0.2-1.5 2.1-1.2 2.5 1 1 2.4-0.4 2.5-1.3z"/>
				<path id="&lt;Path&gt;" class="s19" d="m1116 115c0-1.6 0-2.9-1.8-2.3-1.7 0.7-3.3 6.7-2.3 7.7 1 0.9 4-2.6 4.1-5.4z"/>
				<path id="&lt;Path&gt;" class="s19" d="m1091.4 126.1c-0.5-0.3-0.9-0.6-1 0.1-0.1 0.6 1.3 2.2 1.8 2.1 0.5-0.1 0-1.7-0.8-2.2z"/>
			</g>
			<g id="&lt;Group&gt;">
				<path id="&lt;Path&gt;" class="s6" d="m1035 89.6c0 0-5.9-5.8-0.8-11.3 5-5.5 13.1 4.2 10.5 9.6 0 0 3.7-2.3 6 2.9 2.4 5.2-5.6 7.9-5.6 7.9 0 0 5.9-0.5 7.7 6.6 1.8 7.2-10.6 16.6-18.1 11.9-7.5-4.6-8.3-13.4 1.3-20.4 0 0-6.4-1.4-5.8-5.3 0.5-3.8 4.8-1.9 4.8-1.9z"/>
				<path id="&lt;Path&gt;" class="s20" d="m1043.7 88.9c0 0-2.8 5.4-7.7 1.5 0 0 4.7 4.9 0.8 6.3 0 0 3.8-1.8 7.5 2 0 0-4.3-3.7-0.6-9.8z"/>
				<path id="&lt;Path&gt;" class="s19" d="m1041.6 100.7c1.5-0.2 2.6-0.4 1.7-1.9-0.8-1.5-6.3-2.2-7-1.1-0.6 1 3 3.3 5.3 3z"/>
				<path id="&lt;Path&gt;" class="s19" d="m1040.2 90.9c1.3-0.2 2.3-0.4 1.5-1.7-0.7-1.2-5.6-1.7-6.3-0.8-0.6 0.9 2.6 2.8 4.8 2.5z"/>
				<path id="&lt;Path&gt;" class="s19" d="m1045.9 90.3c0-1.2 0-2-1.2-1.6-1.2 0.4-2.3 4.6-1.6 5.2 0.6 0.6 2.7-1.8 2.8-3.6z"/>
				<path id="&lt;Path&gt;" class="s19" d="m1036.5 92.4c-0.5-0.3-0.8-0.6-1 0.1-0.1 0.6 1.3 2.2 1.8 2.1 0.5-0.1 0-1.7-0.8-2.2z"/>
				<path id="&lt;Path&gt;" class="s19" d="m1042.8 87.9c-0.2-0.4-0.4-0.7-0.7-0.3-0.4 0.4 0 2.1 0.4 2.2 0.4 0.1 0.7-1.2 0.3-1.9z"/>
			</g>
			<g id="&lt;Group&gt;">
				<path id="&lt;Path&gt;" class="s6" d="m1086.4 38.5c0 0 4.8-20.8 18.7-15.2 10.3 4.2 13.5 18 3.9 26.1 0 0 12.5-8.9 14.9-4.5 2.5 4.4-8.1 13-15.1 9.9 0 0 3.2 2.1-1.2 7.1-4.4 5-7.9-1-7.9-1 0 0-9.5 16.4-17.3 8.2-7.9-8.2 0.3-15.3 0.3-15.3 0 0-10.1-4.5-7.7-12.9 2.4-8.5 9.8-5.9 11.4-2.4z"/>
				<path id="&lt;Path&gt;" class="s21" d="m1087.3 40.5c0 0 6.4 16.1 20.7 9.1 0 0-4.8 3-1 4.3 0 0-9.2-2.4-7.7 5.6 0 0-0.6-11.7-15.8-6.2 0 0 8.1-3.9 3.8-12.8z"/>
				<path id="&lt;Path&gt;" class="s19" d="m1099.5 40.9c-0.4-0.6-2.1-1.3-2.6 1.8-0.4 3.2-0.1 4.8 1 3.8 1.1-1 2.7-4 1.6-5.6z"/>
				<path id="&lt;Path&gt;" class="s19" d="m1110.9 50.7c0.1-0.6-0.3-1.8-2.3-0.5-1.9 1.2-2.7 2.2-1.6 2.3 1.1 0.1 3.5-0.4 3.9-1.8z"/>
				<path id="&lt;Path&gt;" class="s22" d="m1106.8 28c1.1 3.2 6.6 6.2 3.2 13.2-3.5 6.9 5.2-1 3.4-7-1.7-6.1-7.7-9.5-6.6-6.2z"/>
				<path id="&lt;Path&gt;" class="s22" d="m1082.8 39.5c0.9 2.1 5 4.3 2.7 8.7-2.3 4.4 3.8-0.4 2.3-4.4-1.4-4-6-6.5-5-4.3z"/>
				<path id="&lt;Path&gt;" class="s22" d="m1093.2 53.8c0.9 2.1 5.1 4.2 2.8 8.6-2.3 4.5 3.8-0.4 2.3-4.4-1.5-4-6-6.4-5.1-4.2z"/>
				<path id="&lt;Path&gt;" class="s19" d="m1091.8 37.8c-2-1.2-3.5-2.1-4 0.7-0.4 2.7 5.7 9 7.6 8.4 1.8-0.7-0.3-7.2-3.6-9.1z"/>
				<path id="&lt;Path&gt;" class="s19" d="m1077.8 44.1c-0.9-1-1.6-1.7-2.2-0.4-0.7 1.3 1.6 5.8 2.7 5.8 1.1 0 0.9-3.7-0.5-5.4z"/>
				<path id="&lt;Path&gt;" class="s19" d="m1084.6 58.2c0-1.7 0-3-1.7-2.3-1.8 0.6-3.4 6.8-2.4 7.7 1 1 4.1-2.6 4.1-5.4z"/>
				<path id="&lt;Path&gt;" class="s19" d="m1075.1 42.1c-0.1 0.4-0.2 0.8 0.4 0.7 0.5 0 1.4-1.6 1.2-1.9-0.2-0.4-1.4 0.4-1.6 1.2z"/>
				<path id="&lt;Path&gt;" class="s19" d="m1100 56.2c-0.1 0.4-0.2 0.8 0.3 0.7 0.6 0 1.4-1.6 1.2-1.9-0.2-0.3-1.3 0.4-1.5 1.2z"/>
			</g>
			<path id="&lt;Path&gt;" class="s3" d="m1057.9 71.1c0 0 27.1 20-3.4 6.6 0 0 20.2 8.7 2.1 13.6 0 0 19.8 1.2 3 9.9 0 0 23.4-9.5 8.5 9.2 0 0 11.4-15 6.4 3.6 0 0 9.3-14.7 10.9-6.4 0 0-2.5-21.8 16.6-7 0 0-5.4-8.3 4.8-5.6 0 0-8.5-6.5-1.3-5.8 0 0-9.5-2.3-2.9-7.1 0 0-9.5 4.6-3.4-3.1 0 0-18.8 10.6-15.4-3.3 0 0-3.2 7.7-11.4-3.6 0 0 2.7 10.3-14.5-1z"/>
			<path id="&lt;Path&gt;" class="s6" d="m1065.1 91.2c0 0-3.9-4.4-0.7-11.1 3.3-6.6 13.1-9.6 19.3-3.2 0 0 1.3-3.7 5.8-2.3 4.6 1.4 5.1 7.7 5.1 7.7 0 0 7.5 3.1 6.1 10.3-1.4 7.2-5.2 6.5-5.2 6.5 0 0 0.7 7.3-7.1 7-7.8-0.3-6.4-6.7-6.4-6.7 0 0-2 5.8-6.4 5-4.4-0.9-4.4-3.6-4.4-3.6 0 0-7.3 1-9-4.7-1.7-5.6 2.9-4.9 2.9-4.9z"/>
			<path id="&lt;Path&gt;" class="s23" d="m1066.9 91.2c0 0 11.4 1.1 15-2.7 3.6-3.8 1.9-10.5 1.9-10.5 0 0 3.1 10.6 9.3 5.2 0 0-6.5 6 1.6 15.2 0 0-11.6-14.1-12.6-0.5 0 0-0.3-10.7-10.4 1.6 0 0 7.9-7.9-4.8-8.3z"/>
			<path id="&lt;Path&gt;" class="s19" d="m1073 85.6c-0.3-0.4-1.4-0.9-1.7 1.3-0.4 2.1-0.1 3.2 0.6 2.5 0.8-0.7 1.9-2.7 1.1-3.8z"/>
			<path id="&lt;Path&gt;" class="s19" d="m1093.8 85.3c-0.3-0.4-1.4-0.9-1.8 1.3-0.3 2.1 0 3.2 0.7 2.5 0.8-0.7 1.8-2.7 1.1-3.8z"/>
			<path id="&lt;Path&gt;" class="s19" d="m1085.7 94.4c-0.5-0.7-2-1.6-1.8 1.2 0.1 2.7 0.7 4.3 1.5 3.5 0.7-0.7 1.5-3.1 0.3-4.7z"/>
			<path id="&lt;Path&gt;" class="s19" d="m1086.9 93.1c-0.5-0.1-1.4 0.1-0.5 1.3 1 1.2 1.7 1.7 1.8 1.1 0.1-0.6-0.3-2.1-1.3-2.4z"/>
			<path id="&lt;Path&gt;" class="s19" d="m1071.9 92.9c-0.4-0.1-1.3 0.1-0.4 1.3 0.9 1.2 1.6 1.7 1.7 1.1 0.1-0.6-0.3-2.1-1.3-2.4z"/>
			<path id="&lt;Path&gt;" class="s22" d="m1078 76.8c0.7 2.2 4.5 4.2 2.1 9-2.3 4.7 3.6-0.6 2.4-4.8-1.2-4.1-5.3-6.5-4.5-4.2z"/>
			<path id="&lt;Path&gt;" class="s22" d="m1070.4 98.8c-1.7-0.9-5.9-0.5-6.1-4.1-0.1-3.7-2.8 1.8 0.2 3.6 3 1.9 7.6 1.4 5.9 0.5z"/>
			<path id="&lt;Path&gt;" class="s22" d="m1093.5 100.3c-2.2 0.6-4.4 4.3-9 1.6-4.6-2.6 0.4 3.6 4.6 2.7 4.2-1 6.8-4.9 4.4-4.3z"/>
			<path id="&lt;Path&gt;" class="s19" d="m1067.8 83.5c-1.4-0.8-2.4-1.4-2.7 0.5-0.4 1.8 3.8 6.1 5.1 5.7 1.2-0.5-0.2-4.9-2.4-6.2z"/>
			<path id="&lt;Path&gt;" class="s19" d="m1080.3 94.7c-0.7-0.6-1.2-1-1.7 1-0.6 2 1.3 5.8 2.2 5.1 0.9-0.6 0.7-5-0.5-6.1z"/>
			<path id="&lt;Path&gt;" class="s19" d="m1088 78.8c-1.1-0.6-1.9-1.1-2.2 0.4-0.2 1.5 3.2 4.9 4.2 4.6 1-0.4-0.2-3.9-2-5z"/>
			<path id="&lt;Path&gt;" class="s22" d="m1045.8 112.7c-3.4-0.6-8.6 2.8-13-3.6-4.5-6.4-1.8 5 4.4 6.4 6.1 1.4 12-2.1 8.6-2.8z"/>
			<path id="&lt;Path&gt;" class="s22" d="m1129.4 106.9c-1.3 3.2 0.9 9-6.2 12.1-7.2 3 4.5 2.7 7.1-3.1 2.7-5.7 0.4-12.2-0.9-9z"/>
			<path id="&lt;Path&gt;" class="s24" d="m1038 128.6c21.3 22 59.1 19.9 84.5-4.7 25.3-24.6 28.6-62.4 7.2-84.3-21.3-22-59.1-19.9-84.5 4.7-25.3 24.6-28.6 62.3-7.2 84.3z"/>
		</g>
		<g id="&lt;Group&gt;">
			<path id="&lt;Path&gt;" class="s25" d="m866 72.4c0 0 57.2-20.7 53.4-11.6-3.8 9.1-47.9 27.9-47.9 27.9 0 0 88.7-28.8 56.4-25.8 0 0 34.2-19.7 10.9-13.6 0 0 10.5-11.4-72.8 23.1z"/>
			<path id="&lt;Path&gt;" class="s26" d="m821.1 89.6c0 0-106 39.7-53.1 28.8 0 0-30.1 24.2 37.8-0.7 0 0-74.1 33.1-65.9 20.5 0 0-54.6 13.9 6.2-14.7 0 0-23.3-4.1 75-33.9z"/>
			<path id="&lt;Path&gt;" class="s27" d="m870.7 69.3c0 0-0.5-14.1-19.4-20-18.9-5.9-32.5 18.9-32.5 18.9 0 0-6.6-2.6-12.6 3.2-5.9 5.8-0.1 11.6-0.1 11.6 0 0-2.8 0.2-3.9 3.3-1.1 3.2 1.7 4.4 1.7 4.4 0 0-9.3 13.2-1 21.6 8.3 8.3 18.4 4.9 18.4 4.9 0 0-2.4 8.9 3.1 13.9 5.6 5 11.3-2.4 11.3-2.4 0 0 2.8 9.5 8 7.8 5.2-1.8 5.2-8.5 5.2-8.5 0 0 1.6 4.6 3.3 3.7 1.7-1 0.4-6 0.4-6 0 0 4.8 3.5 10.8-7 0 0 15.7-2.7 19.5-19.4 3.9-16.7-7.3-15.7-7.3-15.7 0 0 7.3-5 4-11.1-3.2-6.2-8.9-3.2-8.9-3.2z"/>
			<path id="&lt;Path&gt;" class="s17" d="m823 75.1c0 0-2.9-16.1 16.7-21.2 26.4-6.7 31.2 16 23.6 23.4 0 0 9-9 12.6-3.6 3.7 5.4-5.4 11.4-5.4 11.4 0 0 10.2 0.3 9.7 11.2-0.5 10.9-12.3 21.2-21.2 18.8 0 0 3 4-1.5 7.9-4.6 4-8.1-2.6-8.1-2.6 0 0 3.2 5.2 0.6 6.8-2.6 1.6-4.5-6.4-4.5-6.4 0 0 0.7 8.9-5 8.5-5.7-0.4-5.2-7.8-5.2-7.8 0 0-3.9 10.4-8.6 7.6-4.7-2.7-3.5-15-3.5-15 0 0-12.5 5.9-18.4-4.1-5.9-9.9 3.3-18.6 3.3-18.6 0 0-5.2-2.2-3.6-5.3 1.6-3.1 4.3-2.6 4.3-2.6 0 0-6.6-5.1-1.9-10.2 7.9-8.5 16.1 1.8 16.1 1.8z"/>
			<path id="&lt;Path&gt;" class="s3" d="m823.2 114.1c0 0-0.8 0.3-2 0.7 5.6-4.4 10.1-10.3 3.1-15.4l-8.4-7.9 5.1-9.2c0 0 3.1-2.4-0.6-9.7 1.6 1.3 2.6 2.5 2.6 2.5 0 0-0.5-2.7 0.3-6.2 0 0.1-0.7 11 9.4 16.2 10.2 5.2 27.8-10.4 27.8-10.4 0 0 4.4-0.1 5.9-8.5 0.6 4.3-0.5 8.6-3.1 11.1 0 0 6.5-6.6 10.7-5.1-0.5-0.1-5.7-0.7-14 10.3l13-2.5c0 0-0.1 1.7 1.2 1.9-1.7 1.9-3.7 3.2-3.7 3.2 0 0 0.5 0 1.2 0.1-5.9 1.2-12 5.4-13.6 16.8-1.1 8.5 1.5 12.1 5.3 13.3-1.5 0.2-3 0.2-4.4-0.2 0 0 1.9 2.5 0.4 5.5-1.1-3.4-4.3-6.8-11.9-8.3-11-2.1-13.2 7.6-10.9 14.7-1.5-2.3-1.3-5.5-1.3-5.5 0 0-2 5.3-4.8 7.3 2.4-3.2 4.4-7.8 2.8-13.5-1.8-6.5-6.5-1.2-10.2 4.3-0.1-3 0.1-5.5 0.1-5.5z"/>
			<path id="&lt;Path&gt;" class="s6" d="m835.5 70.3c0 0 4.9-20.7 18.7-15.1 10.4 4.1 13.5 17.9 4 26.1 0 0 12.4-9 14.9-4.6 2.4 4.5-8.2 13-15.2 9.9 0 0 3.3 2.1-1.1 7.1-4.5 5-7.9-1-7.9-1 0 0-9.6 16.4-17.4 8.2-7.8-8.1 0.4-15.3 0.4-15.3 0 0-10.2-4.4-7.8-12.9 2.4-8.5 9.9-5.9 11.4-2.4z"/>
			<path id="&lt;Path&gt;" class="s6" d="m810.9 84.7c0 0-6-5.9-0.9-11.5 5.2-5.6 13.4 4.2 10.7 9.8 0 0 3.8-2.4 6.2 2.9 2.3 5.3-5.8 8-5.8 8 0 0 6-0.5 7.8 6.7 1.8 7.3-10.7 16.8-18.3 12.1-7.6-4.7-8.4-13.6 1.3-20.8 0 0-6.5-1.4-5.9-5.3 0.6-3.9 4.9-1.9 4.9-1.9z"/>
			<path id="&lt;Path&gt;" class="s6" d="m837.7 108.9c0 0-3.5-5.9-8.6-2-5.2 3.8-0.9 7.2-0.9 7.2 0 0-5.3 6.8-2.2 12.4 3 5.7 9.5-8.2 9.5-8.2 0 0 2.1 12.3 6.7 9.3 4.6-3 1.8-9.5 1.8-9.5 0 0 2.6 4.7 3.8 3.3 1.3-1.3-0.2-3.9-0.2-3.9 0 0 5.3 7.5 9.2 3.4 3.9-4.1-0.3-7.6-0.3-7.6 0 0 13.4 2.8 19.4-10.9 6-13.7-15.3-15.7-19.6-4.4 0 0-6.1-3-9.9 1.2-3.7 4-0.1 7.6-0.1 7.6 0 0-7.7-7.2-8.6 2.1z"/>
			<path id="&lt;Path&gt;" class="s28" d="m836.5 72.3c0 0 6.3 16.1 20.6 9.1 0 0-4.7 3-1 4.4 0 0-9.1-2.5-7.6 5.6 0 0-0.6-11.8-15.8-6.3 0 0 8.1-3.9 3.8-12.8z"/>
			<path id="&lt;Path&gt;" class="s29" d="m856.1 100.7c0 0-5.4 9-0.7 11.4 0 0-9.7-3.9-8.3 4.3 0 0-3.7-4-3.2 0.8 0 0-6-5.6-8.2-0.1 0 0 0.1-3.4-3.3-4 0 0 4.7 1.1 5.3-2.9 0 0 8.3 9.9 9-2.7 0 0 3 3.7 9.4-6.8z"/>
			<path id="&lt;Path&gt;" class="s30" d="m819.7 83.9c0 0-2.8 5.5-7.8 1.6 0 0 4.8 4.9 0.8 6.4 0 0 3.9-1.8 7.6 2 0 0-4.4-3.8-0.6-10z"/>
			<path id="&lt;Path&gt;" class="s31" d="m765 93.8l29.8-3.4c0 0-12-11.6 3.4-12 0 0-8.4-22.3 18.5-14.6 0 0-11.3-24.9 7.7-10.8l-17.9-34c0 0 22.4 60.6-16.4 21.8 0 0 24.3 43.6-14.8 22.7 0 0 38.4 20.7 2.6 15.9 0 0 32.9 7.6-12.9 14.4z"/>
			<path id="&lt;Path&gt;" class="s32" d="m857.5 27.2l-1.8 15.8c0 0 22.6-19.8 9 7.8 0 0 34.4-36 9.1 0.5 0 0 35.1-20.4 6.8 8.6l41.1-31.3c0 0-62.7 40.5-27.8-11.2 0 0-30.9 39-20.5 5.5 0 0-19.2 32.3-15.9 4.3z"/>
			<path id="&lt;Path&gt;" class="s33" d="m891 93.1l48.2-8.7c0 0-72.7 20.3-18.9 26.9 0 0-55.8-1.3-23 11.5 0 0-47.3-8.6-10.4 28.4l-24.9-23.7c0 0 31.8-6.4 18.4-13.8 0 0 31.1-7.1 13.8-11.9 0 0 24-7-3.2-8.7z"/>
			<path id="&lt;Path&gt;" class="s34" d="m835.2 140.3l-12.7 49.4c0 0 15.6-63.6-17.9-21.3 0 0 23.2-46.6-6.7-15.8 0 0 27.3-35.1-9.9-11.5 0 0 25.1-17.6-7.5-8.6l22-10.7c0 0-8.1 17.4 9 7.6 0 0-11.1 23.7 11.6 3.5 0 0-7.4 39.5 12.1 7.4z"/>
			<path id="&lt;Path&gt;" class="s35" d="m790.9 135.5c21.3 22 59.1 19.8 84.5-4.8 25.3-24.5 28.6-62.3 7.3-84.3-21.4-22-59.2-19.8-84.5 4.8-25.4 24.5-28.7 62.3-7.3 84.3z"/>
			<path id="&lt;Path&gt;" class="s19" d="m848.7 72.7c-0.5-0.6-2.1-1.3-2.6 1.9-0.5 3.1-0.1 4.8 1 3.7 1.1-1 2.7-4 1.6-5.6z"/>
			<path id="&lt;Path&gt;" class="s19" d="m860 82.5c0.2-0.5-0.2-1.8-2.2-0.5-2 1.3-2.7 2.3-1.6 2.4 1.1 0.1 3.5-0.5 3.8-1.9z"/>
			<path id="&lt;Path&gt;" class="s19" d="m852.3 104.1c0-0.5-0.8-1.6-2.3 0.2-1.5 1.7-1.9 2.9-0.9 2.7 1.1-0.2 3.3-1.5 3.2-2.9z"/>
			<path id="&lt;Path&gt;" class="s19" d="m853.1 113.6c0.4-0.4 0.9-1.6-1.5-1.8-2.3-0.2-3.5 0.1-2.6 0.9 0.8 0.7 3 1.7 4.1 0.9z"/>
			<path id="&lt;Path&gt;" class="s19" d="m844.8 115.2c-0.3 0-0.8 0.2-0.2 0.8 0.7 0.7 1.2 0.9 1.2 0.5 0-0.4-0.4-1.2-1-1.3z"/>
			<path id="&lt;Path&gt;" class="s19" d="m832.8 111.5c-0.2 0.1-0.7 0.4 0.1 0.9 0.9 0.4 1.4 0.5 1.3 0.1-0.1-0.4-0.7-1.1-1.4-1z"/>
			<path id="&lt;Path&gt;" class="s22" d="m856 59.9c1 3.2 6.6 6.1 3.1 13.1-3.4 7 5.2-0.9 3.5-7-1.8-6-7.7-9.5-6.6-6.1z"/>
			<path id="&lt;Path&gt;" class="s22" d="m831.9 71.4c0.9 2.1 5.1 4.2 2.8 8.6-2.3 4.4 3.8-0.4 2.3-4.4-1.5-4-6-6.5-5.1-4.2z"/>
			<path id="&lt;Path&gt;" class="s22" d="m842.4 85.6c0.9 2.1 5.1 4.3 2.7 8.7-2.3 4.4 3.8-0.5 2.4-4.4-1.5-4-6.1-6.5-5.1-4.3z"/>
			<path id="&lt;Path&gt;" class="s19" d="m841 69.6c-2-1.2-3.5-2-4 0.7-0.4 2.8 5.7 9.1 7.5 8.4 1.9-0.7-0.3-7.2-3.5-9.1z"/>
			<path id="&lt;Path&gt;" class="s19" d="m827 76c-0.9-1-1.6-1.8-2.3-0.5-0.7 1.3 1.7 5.8 2.7 5.8 1.1 0 1-3.7-0.4-5.3z"/>
			<path id="&lt;Path&gt;" class="s19" d="m833.8 90c0-1.6 0-2.9-1.8-2.3-1.7 0.7-3.4 6.8-2.4 7.8 1 0.9 4.1-2.7 4.2-5.5z"/>
			<path id="&lt;Path&gt;" class="s19" d="m838.8 115.6c-1.1 0.2-2 0.3-1.4 1.4 0.6 1.2 5 1.7 5.6 1 0.5-0.8-2.3-2.6-4.2-2.4z"/>
			<path id="&lt;Path&gt;" class="s19" d="m846 109.5c0.1-1.2 0.1-2.1-1.1-1.7-1.2 0.4-2.6 4.7-1.9 5.3 0.7 0.7 2.9-1.7 3-3.6z"/>
			<path id="&lt;Path&gt;" class="s19" d="m837 110.8c0.1-0.6-0.6-1.5-1.3-1.3-0.8 0.2-1.5 2.2-1.2 2.6 1 1 2.5-0.4 2.5-1.3z"/>
			<path id="&lt;Path&gt;" class="s19" d="m859.1 103.4c0-1.7 0-2.9-1.7-2.3-1.8 0.7-3.4 6.8-2.5 7.7 1 1 4.1-2.6 4.2-5.4z"/>
			<path id="&lt;Path&gt;" class="s19" d="m817.6 95.9c1.5-0.2 2.6-0.4 1.8-1.9-0.9-1.5-6.5-2.2-7.2-1.1-0.6 1 3 3.3 5.4 3z"/>
			<path id="&lt;Path&gt;" class="s19" d="m816.2 86c1.3-0.2 2.3-0.4 1.5-1.7-0.7-1.3-5.7-1.8-6.4-0.9-0.6 0.9 2.7 2.9 4.9 2.6z"/>
			<path id="&lt;Path&gt;" class="s19" d="m821.9 85.3c0-1.1 0-2-1.2-1.6-1.2 0.5-2.3 4.7-1.6 5.3 0.7 0.7 2.8-1.8 2.8-3.7z"/>
			<path id="&lt;Path&gt;" class="s19" d="m812.4 87.5c-0.5-0.3-0.8-0.6-1 0.1-0.1 0.6 1.4 2.3 1.8 2.1 0.5-0.1 0-1.7-0.8-2.2z"/>
			<path id="&lt;Path&gt;" class="s19" d="m834.2 114.7c-0.5-0.4-0.9-0.6-1 0-0.2 0.7 1.3 2.3 1.8 2.2 0.4-0.1 0-1.7-0.8-2.2z"/>
			<path id="&lt;Path&gt;" class="s19" d="m824.3 73.9c-0.1 0.5-0.2 0.8 0.3 0.8 0.6-0.1 1.5-1.7 1.2-2-0.2-0.3-1.3 0.5-1.5 1.2z"/>
			<path id="&lt;Path&gt;" class="s19" d="m818.8 82.9c-0.2-0.4-0.4-0.7-0.7-0.3-0.4 0.4 0 2.2 0.4 2.3 0.4 0.1 0.7-1.3 0.3-2z"/>
			<path id="&lt;Path&gt;" class="s19" d="m849.1 88c-0.1 0.5-0.2 0.8 0.4 0.8 0.5-0.1 1.4-1.7 1.2-2-0.2-0.3-1.4 0.5-1.6 1.2z"/>
		</g>
		<g id="&lt;Group&gt;">
			<path id="&lt;Path&gt;" class="s6" d="m569.6 84.4c3-8.5 15.6-17.5 29.8-16.3 14.2 1.1 25.1 18.3 21.9 31.3-3.2 12.9-30.9 17.8-40.8 12.1-9.9-5.6-14.4-17-10.9-27.1z"/>
			<path id="&lt;Path&gt;" class="s36" d="m528.1 104.1l29.8-3.3c0 0-12-11.7 3.4-12 0 0-8.4-22.3 18.5-14.6 0 0-11.3-24.9 7.7-10.8l-17.9-34c0 0 22.4 60.6-16.4 21.7 0 0 24.3 43.6-14.8 22.7 0 0 38.4 20.8 2.6 16 0 0 32.9 7.5-12.9 14.3z"/>
			<path id="&lt;Path&gt;" class="s37" d="m597 46.2l-1.8 15.9c0 0 22.6-19.8 9 7.7 0 0 34.4-36 9.1 0.6 0 0 35.1-20.4 6.8 8.5l41.1-31.3c0 0-62.7 40.5-27.8-11.2 0 0-30.9 39.1-20.5 5.6 0 0-19.2 32.2-15.9 4.2z"/>
			<path id="&lt;Path&gt;" class="s38" d="m629.8 87.8l48.2-8.7c0 0-72.7 20.3-18.8 26.9 0 0-55.8-1.3-23 11.5 0 0-47.3-8.6-10.5 28.3l-24.8-23.6c0 0 31.7-6.5 18.4-13.8 0 0 31-7.1 13.7-11.9 0 0 24-7-3.2-8.7z"/>
			<path id="&lt;Path&gt;" class="s39" d="m592.9 120.3l-12.7 49.4c0 0 15.6-63.7-17.8-21.3 0 0 23.1-46.6-6.8-15.9 0 0 27.4-35-9.9-11.4 0 0 25.2-17.6-7.4-8.7l22-10.6c0 0-8.2 17.4 9 7.5 0 0-11.1 23.8 11.6 3.6 0 0-7.5 39.5 12 7.4z"/>
			<path id="&lt;Path&gt;" class="s40" d="m580.8 102.7c-2.7-3.8-2.2-18.6 13.8-22.6 16-4 10.7 15 10.7 15 0 0 6.9-18.1-9.3-16.3 0 0 11.4-4.4 12.4 10.3 0 0 0.6-4.4-1.9-8.6 0 0 12.8 14.7-6.4 24.9-19.2 10.3-28.3-3.5-20.1-17.1 0 0-4.8 9.5 1.1 15.1z"/>
			<g id="&lt;Group&gt;">
				<path id="&lt;Compound Path&gt;" class="s41" d="m599.6 98.2c1-1.6 3.3-4.3 4.9-5.3q0 0 0-0.1 0-0.4-0.1-0.8c-0.3 0.6-0.8 1-1.4 0.8-1.6-0.5-4.6-6.9-3.8-7.1 0.2-0.1 0.9 0 1.6 0.2q-0.7-0.4-1.4-0.7c-0.4 0.5-0.9 0.9-1.7 0.8-1-0.1-2-0.8-2.7-1.4q-1.3 0.1-2.7 0.4c2.7 0.3 5.1 1.1 3 3.3-3.1 3.2-8.5 5.7-8.7 2.4-0.1-1.2 0.2-2.2 0.6-3.2-1.6 1.2-2.7 2.8-3.2 4.5 0.7-0.3 1.9-0.6 2.8 0.8 1.3 2 4.2 7.8 1.6 7.8q0.9 0.5 1.8 0.8c-0.3-0.9-0.5-2.5 1-2.3 1.9 0.2 7.1-0.5 8.5 1.7q0.2-0.2 0.4-0.3c-0.7-0.3-1.4-0.9-0.5-2.3zm-2.5-11.4c0.8-0.7 1.2-0.2 2.4 1.8 1.1 2-3 2-4 1.2-0.6-0.4 0.8-2.4 1.6-3zm-7.4 9.9c-1.3-1.6-1.8-3.5 1-4.6 2.9-1.1 10.7-3.4 11.3 0.9 0.5 4.3-8.1 8.6-12.3 3.7z"/>
				<path id="&lt;Path&gt;" class="s42" d="m604.1 92.1c0 5.1-4.1 9.3-9.2 9.3-5.1 0-9.2-4.2-9.2-9.3 0-5.1 4.1-9.2 9.2-9.2 5.1 0 9.2 4.1 9.2 9.2z"/>
			</g>
			<path id="&lt;Path&gt;" class="s40" d="m576.5 91.7c0 0 7.8-17.9 25.8-14.3 0 0-15.4-9.2-25.8 14.3z"/>
			<path id="&lt;Path&gt;" class="s40" d="m594.3 74.8c0 0 11.6-1 15.3 7.3 0 0-1-9.7-15.3-7.3z"/>
			<path id="&lt;Path&gt;" class="s40" d="m615.9 85.7c0 0 6.7 22.7-19.1 25.4 0 0 20.3-1 19.1-25.4z"/>
			<path id="&lt;Path&gt;" class="s40" d="m615.3 79.7c0 0 8.4 6.7 3.1 22 0 0 2-6.4 0.7-11.4 0 0 0.3 3-0.7 5.1 0 0 1-5.8-1.5-8.9 0 0 2.1 2.5 2.2 3.1 0 0-0.6-5.8-3.8-9.9z"/>
			<path id="&lt;Path&gt;" class="s40" d="m576.1 85.1c0 0 2.6-8.1 10.2-10.9 0 0-8.1 0.9-10.2 10.9z"/>
			<path id="&lt;Path&gt;" class="s40" d="m584.3 73.8c0 0 7.8-3.3 13.6-1.8 0 0-5.8-3.8-13.6 1.8z"/>
			<path id="&lt;Compound Path&gt;" class="s43" d="m619.3 88.5c1-0.8 2.2-0.7 3.1 0.1-2.7-10.7-11.8-20.7-22.8-21.6-6.8-0.5-13.2 1.1-18.5 3.9 1.9 2.1 4.9 11.6-2.6 12.7-5.4 0.9-5.1-4.2-4.1-8-2.6 2.4-4.6 5-5.7 7.7 4.2-2.8 8.6 1.5 7.1 12-1.1 7.6-4 7.8-6.1 6.7q0.5 1 1.1 2c3.4-1.3 12.1 0.9 17.4 5.6 3.3 2.9 3.6 4.5 2.9 5.3 2.7 0.1 5.5-0.1 8.4-0.6-4.1-0.2-7.5-2-9.8-5.9-3.6-6 23-21.6 25-14.8 1.7 5.5-1.7 14.4-5.5 18.1 2.9-1.1 5.5-2.5 7.7-4.1-1.1-3.3-0.7-16.5 2.4-19.1zm-30.3 16.1c-2.4 3.3-10.1-1.1-11.9-2.3 0 0-3.1-2.2 1.6-3.1 4.8-1 12.6 2.2 10.3 5.4zm-1.5-5.8c-10.8 0.2-13-9.9-7.4-13.7 5.5-3.9 18.3 4.8 20.5 7.5 2.2 2.8-9.6 6.1-13.1 6.2zm4.3-13.3c-8.1-5.7-13.8-14.6-0.7-15.3 13.1-0.7 25.3 3.7 26.7 15.3 1.3 11.5-20 4.1-26 0z"/>
			<path id="&lt;Path&gt;" class="s44" d="m583.7 78.6c0 0 1.6 2.5-2.9 5.1 0 0 4.6-1.5 9.1 1.4 0 0-3.8-2.2-6.2-6.5z"/>
			<path id="&lt;Path&gt;" class="s44" d="m598.2 89.6c0 0 5.7 2.8 10.2 2.4 0 0-4.3 1.1-7.8 3.3 0 0 3.6-2.5-2.4-5.7z"/>
			<path id="&lt;Path&gt;" class="s44" d="m614.1 91.9c0 0 2.3 0.1 1.7 5.2 0 0 0.9-6 1.9-7.8 0 0-1.2 2.7-3.6 2.6z"/>
			<path id="&lt;Path&gt;" class="s44" d="m585.4 99.2c0 0 4.9 1.1 11-1.6 0 0-4.8 2.7-6.5 6.5 0 0 2.1-4.2-4.5-4.9z"/>
			<path id="&lt;Path&gt;" class="s44" d="m575.5 100.1c0 0 1.2-2.5 5.3-1.8 0 0-3.5-2.3-4.1-5.6 0 0 0.1 4.7-1.2 7.4z"/>
			<path id="&lt;Path&gt;" class="s44" d="m576.5 89c0 0 0.3-3.8 2.9-4.7 0 0-3.3 0.6-4.8-0.6 0 0 1.9 1.9 1.9 5.3z"/>
			<path id="&lt;Path&gt;" class="s44" d="m575.2 100.9c0 0-0.5 1.7 3.4 3 0 0-4.4-1.3-6.4-0.7 0 0 2.6-0.8 3-2.3z"/>
			<path id="&lt;Path&gt;" class="s44" d="m585 106.5c0 0 3.1 0.5 4.2-1 0 0-0.8 2.9 1 4.8 0 0-3.5-3.2-5.2-3.8z"/>
			<path id="&lt;Path&gt;" class="s45" d="m548.3 134c21.4 22 59.2 19.9 84.6-4.7 25.3-24.6 28.6-62.3 7.2-84.3-21.3-22-59.1-19.9-84.5 4.7-25.3 24.6-28.6 62.3-7.3 84.3z"/>
		</g>
		<g id="&lt;Group&gt;">
			<path id="&lt;Path&gt;" class="s46" d="m303.1 101.1l23.2-2.6c0 0-9.3-9.1 2.6-9.3 0 0-6.5-17.3 14.4-11.4 0 0-8.7-19.3 6-8.4l-13.9-26.4c0 0 17.4 47.1-12.7 16.9 0 0 18.8 33.9-11.5 17.6 0 0 29.8 16.2 2 12.5 0 0 25.5 5.8-10.1 11.1z"/>
			<path id="&lt;Path&gt;" class="s47" d="m356.7 56.1l-1.5 12.3c0 0 17.7-15.4 7.1 6 0 0 26.7-27.9 7.1 0.5 0 0 27.2-15.9 5.2 6.6l32-24.3c0 0-48.7 31.5-21.6-8.7 0 0-24 30.3-15.9 4.3 0 0-15 25.1-12.4 3.3z"/>
			<path id="&lt;Path&gt;" class="s48" d="m382.2 88.4l37.5-6.8c0 0-56.5 15.8-14.7 20.9 0 0-43.4-1-17.9 9 0 0-36.7-6.7-8.1 22l-19.3-18.4c0 0 24.6-5 14.3-10.7 0 0 24.1-5.5 10.7-9.2 0 0 18.6-5.5-2.5-6.8z"/>
			<path id="&lt;Path&gt;" class="s49" d="m353.5 113.6l-9.8 38.4c0 0 12.1-49.4-13.9-16.5 0 0 18-36.2-5.3-12.3 0 0 21.3-27.2-7.7-8.9 0 0 19.6-13.7-5.8-6.7l17.1-8.3c0 0-6.3 13.5 7 5.9 0 0-8.6 18.4 9 2.7 0 0-5.7 30.7 9.4 5.7z"/>
			<path id="&lt;Path&gt;" class="s6" d="m332.7 96.5c-2.1-10.4 5.8-23.1 21.4-23.2 15.5-0.1 25.8 14.7 17.9 27.1-8 12.4-35.2 17.4-39.3-3.9z"/>
			<path id="&lt;Path&gt;" class="s40" d="m340.2 101.4c-2.7-3.9-2.1-18.7 13.8-22.6 16-4 10.7 14.9 10.7 14.9 0 0 6.9-18.1-9.3-16.2 0 0 11.5-4.5 12.4 10.2 0 0 0.7-4.4-1.9-8.6 0 0 12.8 14.7-6.4 25-19.2 10.2-28.2-3.5-20.1-17.2 0 0-4.8 9.6 1.2 15.1z"/>
			<g id="&lt;Group&gt;">
				<path id="&lt;Compound Path&gt;" class="s41" d="m359 96.8c1-1.6 3.3-4.3 4.9-5.3q0 0 0 0 0-0.5 0-0.9c-0.4 0.6-0.9 1.1-1.5 0.9-1.6-0.6-4.6-6.9-3.8-7.2 0.3-0.1 0.9 0 1.6 0.2q-0.7-0.4-1.4-0.7c-0.4 0.5-0.9 0.9-1.7 0.8-1 0-2-0.8-2.7-1.4q-1.3 0.1-2.7 0.5c2.7 0.3 5.1 1 3 3.3-3.1 3.2-8.4 5.7-8.7 2.4-0.1-1.2 0.2-2.3 0.6-3.2-1.5 1.2-2.7 2.7-3.2 4.4 0.7-0.3 1.9-0.6 2.8 0.9 1.4 2 4.2 7.7 1.6 7.8q0.9 0.4 1.8 0.7c-0.3-0.9-0.5-2.4 1-2.3 1.9 0.2 7.1-0.4 8.5 1.7q0.2-0.1 0.4-0.2c-0.6-0.3-1.4-1-0.5-2.4zm-2.5-11.4c0.9-0.6 1.2-0.2 2.4 1.8 1.2 2.1-3 2.1-4 1.3-0.6-0.5 0.8-2.5 1.6-3.1zm-7.4 9.9c-1.3-1.5-1.8-3.4 1.1-4.5 2.8-1.2 10.7-3.4 11.2 0.8 0.5 4.3-8.1 8.7-12.3 3.7z"/>
				<path id="&lt;Path&gt;" class="s50" d="m363.6 90.8c0 5.1-4.2 9.2-9.3 9.2-5.1 0-9.2-4.1-9.2-9.2 0-5.1 4.1-9.2 9.2-9.2 5.1 0 9.3 4.1 9.3 9.2z"/>
			</g>
			<path id="&lt;Path&gt;" class="s51" d="m323 119.1c14.2 14.6 39.3 13.2 56.2-3.2 16.9-16.4 19.1-41.5 4.9-56.1-14.2-14.6-39.4-13.2-56.3 3.1-16.9 16.4-19 41.5-4.8 56.2z"/>
		</g>
		<g id="&lt;Group&gt;">
			<path id="&lt;Path&gt;" class="s40" d="m95 91.5c2.9-5.8 12.9-13.5 20.4-10.5 7.5 3 14.1 19.1-3.4 22.7-17.4 3.6-20.4-5.4-17-12.2z"/>
			<g id="&lt;Group&gt;">
				<path id="&lt;Compound Path&gt;" class="s41" d="m113.8 98.6c1-1.6 3.3-4.3 4.9-5.3q0-0.1 0-0.1 0-0.4-0.1-0.8c-0.3 0.6-0.8 1-1.4 0.8-1.6-0.6-4.6-6.9-3.8-7.1 0.2-0.1 0.9 0 1.6 0.2q-0.7-0.4-1.4-0.7c-0.4 0.4-0.9 0.9-1.7 0.8-1-0.1-2-0.8-2.7-1.4q-1.3 0.1-2.7 0.4c2.7 0.3 5.1 1.1 3 3.3-3.1 3.2-8.5 5.7-8.7 2.4-0.1-1.2 0.2-2.3 0.6-3.2-1.6 1.2-2.7 2.7-3.2 4.5 0.7-0.3 1.9-0.6 2.8 0.8 1.3 2 4.2 7.8 1.6 7.8q0.9 0.4 1.8 0.8c-0.3-0.9-0.5-2.5 1-2.3 1.9 0.2 7.1-0.5 8.5 1.6q0.2-0.1 0.4-0.2c-0.7-0.3-1.4-0.9-0.5-2.3zm-2.5-11.5c0.8-0.6 1.2-0.1 2.4 1.9 1.1 2-3 2-4 1.2-0.6-0.4 0.8-2.4 1.6-3.1zm-7.4 10c-1.3-1.6-1.8-3.5 1-4.6 2.9-1.1 10.7-3.4 11.3 0.9 0.5 4.3-8.1 8.6-12.3 3.7z"/>
				<path id="&lt;Path&gt;" class="s52" d="m118.3 92.5c0 5.1-4.1 9.3-9.2 9.3-5.1 0-9.2-4.2-9.2-9.3 0-5.1 4.1-9.2 9.2-9.2 5.1 0 9.2 4.1 9.2 9.2z"/>
			</g>
			<path id="&lt;Path&gt;" class="s53" d="m87.4 113.5c10.1 10.4 28 9.4 39.9-2.2 12-11.6 13.5-29.4 3.5-39.8-10.1-10.3-28-9.3-39.9 2.3-12 11.6-13.5 29.4-3.5 39.7z"/>
		</g>
	</g>
</svg>