<svg version="1.2" xmlns="http://www.w3.org/2000/svg" viewBox="0 0 140 190" >
	<style>
		.s0 { fill: #fdc623 } 
		.s1 { fill: #ffe643 } 
		.s2 { fill: #0e101f } 
		.s3 { fill: #c2451c } 
		.s4 { fill: #d6d6d6 } 
		.s5 { fill: #f45722 } 
		.s6 { fill: #e8e8e8 } 
		.s7 { fill: #c4c4c4 } 
		.s8 { fill: #ffffff } 
		.s9 { fill: #272c54 } 
		.s10 { opacity: .1;fill: #ffffff } 
		.s11 { fill: #fefefe } 
	</style>
	<g id="Layer 1">
		<path id="&lt;Path&gt;" class="s0" d="m36 143.9c0 0 4.1 39.9 14 39.9 9.8 0 11.8-39.9 11.8-39.9z"/>
		<path id="&lt;Path&gt;" class="s1" d="m44.9 143.9c0 0 1.6 32 5.5 32 3.9 0 4.6-32 4.6-32z"/>
		<path id="&lt;Path&gt;" class="s0" d="m81.3 143.9c0 0 4.2 39.9 14 39.9 9.9 0 11.9-39.9 11.9-39.9z"/>
		<path id="&lt;Path&gt;" class="s1" d="m90.3 143.9c0 0 1.6 32 5.5 32 3.8 0 4.6-32 4.6-32z"/>
		<path id="&lt;Path&gt;" class="s2" d="m33 156.2h31.7c0 1.4-1.2 2.6-2.6 2.6h-26.5c-1.4 0-2.6-1.2-2.6-2.6z"/>
		<path id="&lt;Path&gt;" class="s3" d="m63.7 156.9h-29.6c-2.4 0-4.3-1.9-4.3-4.2v-10.9h38.2v10.9c0 2.3-2 4.2-4.3 4.2z"/>
		<path id="&lt;Path&gt;" class="s2" d="m78.4 156.2h31.7c0 1.4-1.2 2.6-2.6 2.6h-26.5c-1.4 0-2.6-1.2-2.6-2.6z"/>
		<path id="&lt;Path&gt;" class="s3" d="m109 156.9h-29.6c-2.3 0-4.3-1.9-4.3-4.2v-10.9h38.2v10.9c0 2.3-1.9 4.2-4.3 4.2z"/>
		<path id="&lt;Path&gt;" class="s4" d="m97.6 130.4h-53.6c0 0-21.9-51.6 3.1-94.9 3.8-6.6 8.7-13 15-19q0.2-0.2 0.4-0.4c2-1.7 4.9-2.5 7.9-2.6q0.2 0 0.4 0 0.2 0 0.5 0c2.9 0.1 5.8 0.9 7.8 2.6q0.3 0.2 0.5 0.4c6.2 6 11.1 12.4 14.9 19 25 43.3 3.1 94.9 3.1 94.9z"/>
		<path id="&lt;Path&gt;" class="s2" d="m94.5 35.5h-47.4c3.8-6.6 8.7-13 15-19q0.2-0.2 0.4-0.4c2-1.7 4.9-2.5 7.9-2.6q0.2 0 0.4 0 0.2 0 0.5 0c2.9 0.1 5.8 0.9 7.8 2.6q0.3 0.2 0.5 0.4c6.2 6 11.1 12.4 14.9 19z"/>
		<path id="&lt;Path&gt;" class="s2" d="m55.3 130.4h-1.6v-94.9h1.6z"/>
		<path id="&lt;Path&gt;" class="s2" d="m88 130.4h-1.7v-94.9h1.7z"/>
		<path id="&lt;Path&gt;" class="s5" d="m135.6 74.4c0 41.3 0 77.5-61.6 78.5q-0.6 0-1.3 0-0.6 0-1.3 0-0.6 0-1.3 0c-64.1-0.4-64.1-36.6-64.1-78.5 0-29 13.8-54.1 34.1-67 1.4-0.9 3.1-0.7 4.3 0.3 0.8 0.7 1.3 1.6 1.3 2.8v43.1c0 7.5 5.1 13.5 11.4 13.5h27.4c6.3 0 11.5-6 11.5-13.5v-43.1c0-1.3 0.6-2.3 1.5-3 1.1-0.8 2.7-1 4.1-0.1 20.2 12.9 34 38 34 67z"/>
		<path id="&lt;Path&gt;" class="s6" d="m126.4 74.1c0 41.2 0 77.3-52.4 78.4q-0.6 0-1.3 0.1-0.2 0-0.4 0-0.4 0-0.9 0-0.4 0-0.8 0-0.2 0-0.5 0c-54.4-0.6-54.4-36.8-54.4-78.5 0-28.8 11.6-53.8 28.7-66.7 0.8 0.6 1.3 1.6 1.3 2.8v43.1c0 7.4 5.1 13.4 11.4 13.4h27.4c6.3 0 11.5-6 11.5-13.4v-43.1c0-1.3 0.6-2.4 1.5-3 17.2 12.9 28.9 38 28.9 66.9z"/>
		<path id="&lt;Path&gt;" class="s7" d="m72.3 66.6v86q-0.4 0-0.9 0-0.4 0-0.8 0v-86z"/>
		<path id="&lt;Path&gt;" class="s2" d="m114.8 109.1h-11.9v-2.4h11.9z"/>
		<path id="&lt;Path&gt;" class="s2" d="m114.8 114h-11.9v-2.4h11.9z"/>
		<path id="&lt;Path&gt;" class="s2" d="m41.7 109.1h-11.9v-2.4h11.9z"/>
		<path id="&lt;Path&gt;" class="s2" d="m41.7 114h-11.9v-2.4h11.9z"/>
		<path id="&lt;Path&gt;" class="s8" d="m99.8 53.2c-0.9 0-1.7-0.8-1.7-1.7v-15.1c0-1 0.8-1.7 1.7-1.7 0.9 0 1.6 0.7 1.6 1.7v15.1c0 0.9-0.7 1.7-1.6 1.7z"/>
		<path id="&lt;Path&gt;" class="s8" d="m99.8 31.1c-0.9 0-1.7-0.8-1.7-1.7v-3.3c0-0.9 0.8-1.6 1.7-1.6 0.9 0 1.6 0.7 1.6 1.6v3.3c0 0.9-0.7 1.7-1.6 1.7z"/>
		<path id="&lt;Path&gt;" class="s8" d="m41.8 53.2c-0.9 0-1.7-0.8-1.7-1.7v-15.1c0-1 0.8-1.7 1.7-1.7 0.9 0 1.6 0.7 1.6 1.7v15.1c0 0.9-0.7 1.7-1.6 1.7z"/>
		<path id="&lt;Path&gt;" class="s8" d="m41.8 31.1c-0.9 0-1.7-0.8-1.7-1.7v-3.3c0-0.9 0.8-1.6 1.7-1.6 0.9 0 1.6 0.7 1.6 1.6v3.3c0 0.9-0.7 1.7-1.6 1.7z"/>
		<path id="&lt;Path&gt;" class="s9" d="m91.8 118.2c0 16.5-9 23.6-20.2 23.6-11.3 0-20.3-7.1-20.3-23.6 0-16.6 9-30 20.3-30 11.2 0 20.2 13.4 20.2 30z"/>
		<path id="&lt;Path&gt;" class="s10" d="m88.3 117.6c0 13.7-7.5 19.5-16.7 19.5-9.3 0-16.8-5.8-16.8-19.5 0-13.7 7.5-24.8 16.8-24.8 9.2 0 16.7 11.1 16.7 24.8z"/>
		<path id="&lt;Path&gt;" class="s11" d="m82.7 109.7c0 6.8-5 12.3-11.1 12.3-6.2 0-11.2-5.5-11.2-12.3 0-6.8 5-12.3 11.2-12.3 6.1 0 11.1 5.5 11.1 12.3z"/>
	</g>
</svg>